<svg width="746" height="564" viewBox="0 0 746 564" fill="none" xmlns="http://www.w3.org/2000/svg">
<g clip-path="url(#clip0_6_1404)">
<path d="M528.6 218.346H464.878V259.055H528.6V218.346Z" fill="#84C9BD"/>
<path d="M429.312 282H365.59V322.709H429.312V282Z" fill="#84C9BD"/>
<path d="M714.88 231.669V145.071H666.718V88.8189H634.116V145.071H585.954V231.669H559.28V37.0079H505.19V18.5039H433.318V0H362.186V18.5039H294.76V37.0079H236.224V230.929H205.104V144.331H156.942V88.0787H124.34V144.331H76.1785V230.929H45.0585V538.094H116.19V429.291H165.093V538.094H356.259V411.528H439.245V538.094H554.834V538.835H625.966V430.031H674.868V538.835H746V231.669H714.88ZM70.6213 268.677H98.7775V290.882H70.6213V268.677ZM70.9918 330.85H99.148V353.055H70.9918V330.85ZM99.5185 415.228H71.3623V393.024H99.5185V415.228ZM173.243 214.646H108.039V201.323H173.243V214.646ZM173.243 195.402H108.039V182.079H173.243V195.402ZM173.243 176.157H108.039V162.835H173.243V176.157ZM182.505 268.677H210.661V290.882H182.505V268.677ZM182.876 330.85H211.032V353.055H182.876V330.85ZM211.402 415.228H183.246V393.024H211.402V415.228ZM326.621 378.22H274.754V355.276H326.621V378.22ZM326.621 312.346H274.754V289.402H326.621V312.346ZM326.621 246.472H274.754V223.528H326.621V246.472ZM326.621 180.598H274.754V157.654H326.621V180.598ZM326.621 114.724H274.754V91.7795H326.621V114.724ZM423.685 378.22H371.819V355.276H423.685V378.22ZM423.685 312.346H371.819V289.402H423.685V312.346ZM423.685 246.472H371.819V223.528H423.685V246.472ZM423.685 180.598H371.819V157.654H423.685V180.598ZM423.685 114.724H371.819V91.7795H423.685V114.724ZM520.75 378.22H468.884V355.276H520.75V378.22ZM520.75 312.346H468.884V289.402H520.75V312.346ZM520.75 246.472H468.884V223.528H520.75V246.472ZM520.75 180.598H468.884V157.654H520.75V180.598ZM520.75 114.724H468.884V91.7795H520.75V114.724ZM580.397 269.417H608.553V291.622H580.397V269.417ZM580.767 331.591H608.924V353.795H580.767V331.591ZM609.294 415.968H581.138V393.764H609.294V415.968ZM683.019 215.386H617.815V202.063H683.019V215.386ZM683.019 196.142H617.815V182.819H683.019V196.142ZM683.019 176.898H617.815V163.575H683.019V176.898ZM692.281 269.417H720.437V291.622H692.281V269.417ZM692.651 331.591H720.808V353.795H692.651V331.591ZM721.178 415.968H693.022V393.764H721.178V415.968Z" fill="#F2F2F2"/>
<path d="M88.9144 463.124C88.7072 466.052 88.3827 469.327 87.8812 472.768L96.9399 462.732L96.9897 462.9C96.4357 460.485 95.5438 458.16 94.3401 455.994L94.398 456.152L88.9144 463.124Z" fill="#84C9BD"/>
<path d="M88.9498 462.61L94.2617 455.857C93.1316 453.797 91.497 452.057 89.5106 450.8C89.4133 450.742 89.3154 450.687 89.2176 450.633C89.2466 451.431 89.3857 456.113 88.9498 462.61Z" fill="#84C9BD"/>
<path d="M84.1575 489.083C83.9241 489.793 83.683 490.49 83.4344 491.175L96.775 483.361L96.7937 483.557C97.0724 482.342 97.3046 481.127 97.4901 479.912L84.1696 489.173L84.1575 489.083Z" fill="#84C9BD"/>
<path d="M86.0128 482.525L98.0279 472.627L98.062 472.812C98.1044 469.539 97.7586 466.273 97.0318 463.081L87.8005 473.308C87.3157 476.531 86.7198 479.604 86.0128 482.525Z" fill="#84C9BD"/>
<path d="M87.5944 473.113L73.2177 457.089L73.2946 456.908C71.9431 458.809 70.7874 460.841 69.845 462.974L86.2511 480.423C86.8132 477.876 87.2521 475.41 87.5944 473.113Z" fill="#84C9BD"/>
<path d="M69.6898 463.336L69.6904 463.336C69.7164 463.277 69.739 463.212 69.7653 463.152L69.6898 463.336Z" fill="#84C9BD"/>
<path d="M68.8899 465.3L68.8159 465.484C68.8394 465.421 68.8666 465.363 68.8903 465.301L68.8899 465.3Z" fill="#84C9BD"/>
<path d="M86.1564 480.848L69.6904 463.335C69.4121 463.972 69.1454 464.627 68.8903 465.301L85.7196 482.7C85.8726 482.079 86.0183 481.462 86.1564 480.848Z" fill="#84C9BD"/>
<path d="M97.5254 479.679C97.8532 477.476 98.0319 475.254 98.0602 473.027L85.8826 483.059C85.4001 485.005 84.8692 486.875 84.2899 488.67L97.4995 479.487L97.5254 479.679Z" fill="#84C9BD"/>
<path d="M66.7067 480.927L80.0353 498.298C81.1304 496.183 82.0976 494.005 82.9317 491.775L66.6681 474.711C66.5069 476.845 66.489 478.986 66.6146 481.122L66.7067 480.927Z" fill="#84C9BD"/>
<path d="M88.974 450.619L89.0935 450.565C86.1745 449.007 83.0144 449.175 79.9856 450.754L88.7151 462.598C89.1849 455.568 88.9772 450.689 88.974 450.619Z" fill="#84C9BD"/>
<path d="M83.0019 492.337C82.2369 494.344 81.363 496.307 80.3841 498.218L93.7912 491.289L93.8048 491.482C94.8149 489.777 95.6047 487.952 96.1554 486.049C96.3684 485.3 96.5628 484.549 96.7385 483.797L83.2388 491.703C83.1601 491.915 83.0821 492.128 83.0019 492.337Z" fill="#84C9BD"/>
<path d="M88.679 463.122L79.7493 451.006L79.833 450.833C77.2773 452.311 75.0809 454.335 73.4019 456.761L87.6616 472.655C88.1551 469.252 88.4747 466.016 88.679 463.122Z" fill="#84C9BD"/>
<path d="M83.0777 491.384C84.0719 488.675 84.9193 485.915 85.6162 483.115L68.7451 465.672C68.3435 466.762 67.9746 467.895 67.6385 469.072C67.1721 470.759 66.8607 472.486 66.7084 474.23L83.0649 491.391L83.0777 491.384Z" fill="#84C9BD"/>
<path d="M100.407 510.202C98.3776 512.325 96.0367 514.641 93.4531 516.972L106.838 515.014L106.769 515.175C107.884 512.962 108.682 510.603 109.138 508.167L109.081 508.327L100.407 510.202Z" fill="#84C9BD"/>
<path d="M108.735 501.09C108.697 500.983 108.656 500.879 108.615 500.775C108.129 501.408 105.246 505.103 100.762 509.829L109.165 508.012C109.61 505.706 109.462 503.324 108.735 501.09Z" fill="#84C9BD"/>
<path d="M80.1677 527.165C79.5346 527.563 78.9038 527.947 78.2753 528.315L93.5392 530.797L93.4283 530.96C94.4188 530.202 95.3733 529.414 96.2919 528.596L80.1199 527.242L80.1677 527.165Z" fill="#84C9BD"/>
<path d="M85.784 523.296L101.358 523.328L101.266 523.492C103.388 520.998 105.208 518.262 106.686 515.341L93.0461 517.336C90.6146 519.51 88.194 521.496 85.784 523.296Z" fill="#84C9BD"/>
<path d="M80.5335 526.931L96.5707 528.275L96.4685 528.439C98.1273 526.951 99.6838 525.353 101.127 523.656L85.3428 523.624C83.729 524.815 82.1259 525.918 80.5335 526.931Z" fill="#84C9BD"/>
<path d="M60.8908 534.859C61.0044 534.744 61.1246 534.62 61.2432 534.498C64.5133 533.978 67.7088 533.066 70.7605 531.782L71.1964 520.236C71.3257 519.942 71.4514 519.646 71.5734 519.348L71.1095 531.636C73.303 530.705 75.4386 529.644 77.5048 528.457L76.0155 506.994C76.1304 506.934 76.246 506.874 76.3651 506.811L77.8525 528.247L77.8671 528.249C80.3624 526.796 82.7776 525.21 85.1021 523.498L83.4803 502.376C83.5952 502.292 83.7097 502.21 83.8248 502.124L85.4464 523.244C85.9608 522.863 86.4672 522.481 86.9656 522.096L85.6278 500.715C85.7423 500.621 85.8568 500.527 85.9711 500.431L87.31 521.829C89.3688 520.225 91.2812 518.606 93.0116 517.055L92.1701 495.554L92.345 495.463C91.7474 495.619 91.1399 495.804 90.5273 496.005C91.6793 494.691 92.7155 493.279 93.6244 491.787L80.089 498.783C79.1521 500.561 78.0983 502.275 76.9344 503.914C76.6925 504.142 76.4506 504.37 76.2123 504.608L76.23 504.865C76.1196 505.01 76.0097 505.156 75.8979 505.299L75.8739 504.953C75.703 505.128 75.5364 505.313 75.3675 505.493C77.0816 503.355 78.586 501.058 79.8598 498.633L66.6287 481.389C66.7189 482.93 66.8696 484.482 67.0637 486.021C65.8353 484.026 64.3434 482.205 62.6283 480.607L62.7326 480.741L59.6747 489.064C60.3836 491.912 61.0884 495.127 61.6763 498.555L67.1104 486.383C67.1352 486.573 67.1615 486.762 67.1876 486.951L61.7666 499.093C62.3029 502.308 62.6869 505.414 62.9186 508.411L69.425 498.202C69.4622 498.349 69.4993 498.496 69.5365 498.64L62.96 508.959C63.1031 510.958 63.1769 512.901 63.1815 514.787L71.1348 504.305C71.1773 504.443 71.2187 504.577 71.26 504.709L63.2224 515.302L63.1833 515.221C63.1811 515.968 63.1676 516.706 63.1428 517.433L72.1141 507.343C72.1618 507.484 72.2061 507.613 72.2469 507.732L63.1203 517.996C63.111 518.222 63.1027 518.448 63.0912 518.672C62.9844 520.816 62.7608 522.954 62.4214 525.074L63.2872 524.198C63.1232 524.538 62.9635 524.873 62.808 525.203L62.3154 525.701C62.2588 526.025 62.1944 526.342 62.1324 526.661C61.9506 527.059 61.7755 527.449 61.6069 527.828C61.7696 527.1 61.9214 526.368 62.051 525.629L44.1321 513.316C48.807 525.263 57.6103 536.628 58.1739 537.349C58.6314 536.495 59.0471 535.617 59.4287 534.72C59.5396 534.71 59.6505 534.699 59.7613 534.688C59.7155 534.798 59.6679 534.906 59.6213 535.016C59.5654 535.021 59.5088 535.03 59.4531 535.036C59.4965 535.048 59.5486 535.062 59.5958 535.075C59.3269 535.702 59.0483 536.318 58.7495 536.912C59.1406 536.561 59.7363 536.006 60.4485 535.301C64.6621 536.376 76.0133 538.674 85.7327 535.279L70.8412 532.043C67.6544 533.391 64.3119 534.337 60.8908 534.859ZM71.3549 516.036L71.712 515.675L71.6916 516.216L71.3345 516.578L71.3549 516.036Z" fill="#84C9BD"/>
<path d="M108.437 500.609L108.563 500.644C107.31 497.584 104.769 495.7 101.428 494.986L100.589 509.67C105.439 504.555 108.395 500.665 108.437 500.609Z" fill="#84C9BD"/>
<path d="M77.2002 528.935C75.3298 529.993 73.4031 530.948 71.4287 531.797L86.179 535.002L86.0664 535.159C87.9328 534.49 89.7068 533.587 91.3459 532.472C91.988 532.031 92.6171 531.577 93.2331 531.109L77.7873 528.598C77.5915 528.711 77.3955 528.825 77.2002 528.935Z" fill="#84C9BD"/>
<path d="M93.3562 516.745C95.9088 514.438 98.2214 512.149 100.227 510.051L101.085 495.03L101.26 494.95C98.3482 494.459 95.3639 494.619 92.5216 495.418L93.3562 516.745Z" fill="#84C9BD"/>
<path d="M62.5117 480.502C60.7995 478.892 58.7064 477.741 56.4282 477.159C56.3177 477.134 56.2078 477.112 56.098 477.091C56.3724 477.841 57.9535 482.25 59.5494 488.564L62.5117 480.502Z" fill="#84C9BD"/>
<path d="M61.5104 498.972L42.8794 488.171L42.8965 487.975C42.1994 490.2 41.7291 492.49 41.4928 494.809L62.4946 506.338C62.2412 503.742 61.8956 501.262 61.5104 498.972Z" fill="#84C9BD"/>
<path d="M41.4568 495.2L41.4576 495.201C41.4638 495.136 41.4652 495.068 41.4718 495.004L41.4568 495.2Z" fill="#84C9BD"/>
<path d="M41.3042 497.317L41.2906 497.514C41.2935 497.447 41.3016 497.384 41.3048 497.317L41.3042 497.317Z" fill="#84C9BD"/>
<path d="M62.5361 506.771L41.4575 495.201C41.3899 495.892 41.339 496.598 41.3048 497.317L62.6938 508.668C62.6472 508.03 62.5946 507.398 62.5361 506.771Z" fill="#84C9BD"/>
<path d="M62.8505 518.159L42.1033 506.953C42.6102 509.031 43.2558 511.074 44.036 513.066L44.0633 512.852L62.1142 525.257C62.5014 522.908 62.7473 520.538 62.8505 518.159Z" fill="#84C9BD"/>
<path d="M55.8619 477.152L55.959 477.065C52.7009 476.485 49.7473 477.619 47.3556 480.057L59.3225 488.625C57.5941 481.795 55.8866 477.218 55.8619 477.152Z" fill="#84C9BD"/>
<path d="M59.4502 489.135L47.2088 480.369L47.2351 480.179C45.2615 482.373 43.7991 484.977 42.9532 487.803L61.4325 498.515C60.8489 495.127 60.1513 491.95 59.4502 489.135Z" fill="#84C9BD"/>
<path d="M62.8682 517.742C62.9755 514.859 62.9273 511.972 62.7238 509.094L41.2816 497.715C41.2367 498.875 41.2365 500.067 41.2811 501.29C41.3597 503.039 41.5979 504.777 41.9927 506.483L62.8584 517.753L62.8682 517.742Z" fill="#84C9BD"/>
<path d="M723.17 460.903C722.963 463.831 722.639 467.106 722.137 470.547L731.196 460.512L731.246 460.68C730.692 458.265 729.8 455.94 728.596 453.773L728.654 453.932L723.17 460.903Z" fill="#84C9BD"/>
<path d="M723.206 460.389L728.518 453.637C727.387 451.577 725.753 449.837 723.766 448.579C723.669 448.521 723.571 448.467 723.473 448.413C723.502 449.21 723.642 453.892 723.206 460.389Z" fill="#84C9BD"/>
<path d="M718.413 486.863C718.18 487.573 717.939 488.27 717.69 488.954L731.031 481.141L731.049 481.337C731.328 480.122 731.56 478.907 731.746 477.692L718.425 486.952L718.413 486.863Z" fill="#84C9BD"/>
<path d="M720.269 480.305L732.284 470.406L732.318 470.592C732.36 467.319 732.014 464.052 731.288 460.861L722.056 471.087C721.571 474.311 720.976 477.383 720.269 480.305Z" fill="#84C9BD"/>
<path d="M721.85 470.893L707.473 454.869L707.55 454.688C706.199 456.588 705.043 458.621 704.101 460.754L720.507 478.202C721.069 475.656 721.508 473.19 721.85 470.893Z" fill="#84C9BD"/>
<path d="M703.945 461.114L703.946 461.115C703.972 461.056 703.995 460.991 704.021 460.932L703.945 461.114Z" fill="#84C9BD"/>
<path d="M720.412 478.627L703.946 461.115C703.668 461.752 703.401 462.407 703.146 463.08L719.975 480.48C720.128 479.859 720.274 479.241 720.412 478.627Z" fill="#84C9BD"/>
<path d="M703.146 463.08L703.072 463.263C703.095 463.2 703.122 463.143 703.146 463.08L703.146 463.08Z" fill="#84C9BD"/>
<path d="M731.781 477.458C732.109 475.255 732.288 473.033 732.316 470.807L720.138 480.839C719.656 482.784 719.125 484.655 718.546 486.45L731.755 477.267L731.781 477.458Z" fill="#84C9BD"/>
<path d="M700.962 478.706L714.291 496.077C715.386 493.963 716.353 491.785 717.187 489.555L700.924 472.491C700.763 474.624 700.745 476.766 700.87 478.901L700.962 478.706Z" fill="#84C9BD"/>
<path d="M723.23 448.398L723.349 448.345C720.43 446.787 717.27 446.954 714.241 448.534L722.971 460.378C723.441 453.348 723.233 448.468 723.23 448.398Z" fill="#84C9BD"/>
<path d="M717.258 490.117C716.493 492.123 715.619 494.086 714.64 495.998L728.047 489.069L728.06 489.261C729.071 487.557 729.86 485.731 730.411 483.828C730.624 483.08 730.818 482.329 730.994 481.576L717.495 489.483C717.416 489.695 717.338 489.907 717.258 490.117Z" fill="#84C9BD"/>
<path d="M722.935 460.901L714.005 448.785L714.089 448.613C711.533 450.09 709.337 452.115 707.658 454.541L721.917 470.434C722.411 467.032 722.73 463.795 722.935 460.901Z" fill="#84C9BD"/>
<path d="M717.334 489.163C718.328 486.455 719.175 483.694 719.872 480.894L703.001 463.452C702.599 464.541 702.23 465.674 701.894 466.851C701.428 468.539 701.116 470.266 700.964 472.01L717.321 489.171L717.334 489.163Z" fill="#84C9BD"/>
<path d="M734.662 507.982C732.633 510.105 730.292 512.42 727.709 514.751L741.094 512.793L741.025 512.955C742.14 510.742 742.938 508.382 743.394 505.947L743.337 506.106L734.662 507.982Z" fill="#84C9BD"/>
<path d="M742.991 498.87C742.953 498.763 742.912 498.659 742.871 498.555C742.384 499.187 739.502 502.882 735.018 507.608L743.421 505.792C743.865 503.485 743.718 501.104 742.991 498.87Z" fill="#84C9BD"/>
<path d="M714.423 524.945C713.79 525.343 713.16 525.726 712.531 526.095L727.795 528.576L727.684 528.739C728.675 527.981 729.629 527.193 730.548 526.376L714.376 525.021L714.423 524.945Z" fill="#84C9BD"/>
<path d="M720.04 521.076L735.614 521.107L735.522 521.272C737.644 518.778 739.463 516.042 740.942 513.121L727.302 515.116C724.87 517.289 722.45 519.276 720.04 521.076Z" fill="#84C9BD"/>
<path d="M714.789 524.711L730.826 526.054L730.724 526.218C732.383 524.731 733.94 523.133 735.383 521.436L719.599 521.404C717.985 522.595 716.382 523.697 714.789 524.711Z" fill="#84C9BD"/>
<path d="M695.147 532.639C695.26 532.524 695.38 532.399 695.499 532.277C698.769 531.757 701.965 530.845 705.016 529.561L705.452 518.015C705.581 517.722 705.707 517.426 705.829 517.128L705.365 529.415C707.559 528.484 709.694 527.423 711.761 526.237L710.271 504.773C710.386 504.714 710.502 504.653 710.621 504.59L712.108 526.026L712.123 526.028C714.618 524.576 717.033 522.989 719.358 521.277L717.736 500.156C717.851 500.072 717.965 499.989 718.08 499.904L719.702 521.024C720.217 520.643 720.723 520.26 721.221 519.875L719.884 498.494C719.998 498.4 720.113 498.306 720.227 498.211L721.566 519.608C723.625 518.005 725.537 516.386 727.267 514.834L726.426 493.333L726.601 493.243C726.003 493.398 725.396 493.583 724.783 493.784C725.935 492.47 726.971 491.059 727.88 489.567L714.345 496.562C713.408 498.34 712.354 500.054 711.19 501.693C710.948 501.922 710.706 502.149 710.468 502.387L710.486 502.644C710.375 502.789 710.265 502.936 710.154 503.079L710.13 502.733C709.959 502.908 709.792 503.093 709.623 503.273C711.337 501.135 712.842 498.837 714.116 496.412L700.884 479.168C700.975 480.71 701.125 482.261 701.319 483.8C700.091 481.805 698.599 479.984 696.884 478.387L696.988 478.52L693.93 486.843C694.639 489.692 695.344 492.906 695.932 496.334L701.366 484.162C701.391 484.352 701.417 484.541 701.443 484.731L696.022 496.873C696.559 500.088 696.943 503.194 697.174 506.19L703.681 495.982C703.718 496.128 703.755 496.275 703.792 496.42L697.216 506.739C697.359 508.738 697.433 510.68 697.437 512.567L705.391 502.084C705.433 502.222 705.475 502.356 705.516 502.489L697.478 513.082L697.439 513C697.437 513.748 697.423 514.485 697.399 515.213L706.37 505.123C706.418 505.263 706.462 505.393 706.503 505.511L697.376 515.776C697.367 516.001 697.359 516.228 697.347 516.451C697.24 518.596 697.017 520.733 696.677 522.853L697.543 521.977C697.379 522.317 697.219 522.652 697.064 522.982L696.571 523.481C696.515 523.805 696.45 524.121 696.388 524.44C696.206 524.839 696.031 525.228 695.863 525.607C696.025 524.88 696.177 524.148 696.307 523.409L678.388 511.095C683.063 523.043 691.866 534.407 692.43 535.129C692.887 534.275 693.303 533.397 693.685 532.5C693.795 532.489 693.906 532.479 694.017 532.467C693.971 532.578 693.924 532.686 693.877 532.795C693.821 532.801 693.765 532.81 693.709 532.815C693.752 532.828 693.804 532.842 693.852 532.855C693.583 533.481 693.304 534.097 693.005 534.692C693.396 534.34 693.992 533.785 694.704 533.081C698.918 534.155 710.269 536.453 719.989 533.059L705.097 529.823C701.91 531.171 698.568 532.117 695.147 532.639ZM705.611 513.816L705.968 513.455L705.947 513.996L705.59 514.357L705.611 513.816Z" fill="#84C9BD"/>
<path d="M742.693 498.388L742.819 498.423C741.565 495.364 739.025 493.479 735.684 492.766L734.844 507.45C739.695 502.335 742.651 498.444 742.693 498.388Z" fill="#84C9BD"/>
<path d="M711.456 526.714C709.585 527.772 707.659 528.728 705.684 529.576L720.435 532.782L720.322 532.939C722.189 532.269 723.963 531.367 725.602 530.252C726.244 529.811 726.873 529.356 727.489 528.889L712.043 526.377C711.847 526.49 711.651 526.604 711.456 526.714Z" fill="#84C9BD"/>
<path d="M727.612 514.524C730.165 512.218 732.477 509.929 734.482 507.83L735.341 492.809L735.516 492.73C732.604 492.239 729.62 492.399 726.777 493.198L727.612 514.524Z" fill="#84C9BD"/>
<path d="M696.767 478.281C695.055 476.671 692.962 475.521 690.684 474.938C690.573 474.913 690.464 474.892 690.354 474.871C690.628 475.62 692.209 480.03 693.805 486.344L696.767 478.281Z" fill="#84C9BD"/>
<path d="M695.766 496.751L677.135 485.951L677.152 485.755C676.455 487.98 675.985 490.27 675.749 492.589L696.75 504.117C696.497 501.522 696.151 499.042 695.766 496.751Z" fill="#84C9BD"/>
<path d="M675.56 495.096L675.546 495.293C675.549 495.226 675.557 495.163 675.561 495.096L675.56 495.096Z" fill="#84C9BD"/>
<path d="M675.713 492.98L675.713 492.98C675.72 492.916 675.721 492.847 675.728 492.783L675.713 492.98Z" fill="#84C9BD"/>
<path d="M696.792 504.551L675.713 492.98C675.646 493.672 675.595 494.377 675.561 495.096L696.95 506.448C696.903 505.81 696.85 505.177 696.792 504.551Z" fill="#84C9BD"/>
<path d="M697.106 515.939L676.359 504.732C676.866 506.811 677.512 508.853 678.292 510.845L678.319 510.632L696.37 523.036C696.757 520.687 697.003 518.317 697.106 515.939Z" fill="#84C9BD"/>
<path d="M690.118 474.932L690.215 474.844C686.957 474.264 684.003 475.399 681.611 477.836L693.578 486.405C691.85 479.574 690.142 474.998 690.118 474.932Z" fill="#84C9BD"/>
<path d="M693.706 486.914L681.465 478.149L681.491 477.959C679.517 480.153 678.055 482.756 677.209 485.582L695.688 496.294C695.105 492.906 694.407 489.729 693.706 486.914Z" fill="#84C9BD"/>
<path d="M697.124 515.522C697.231 512.638 697.183 509.752 696.979 506.874L675.537 495.494C675.492 496.655 675.492 497.846 675.537 499.069C675.615 500.818 675.854 502.557 676.248 504.262L697.114 515.533L697.124 515.522Z" fill="#84C9BD"/>
<path d="M45.0585 538.094H746V548.113C746 552.326 744.324 556.367 741.342 559.347C738.359 562.326 734.314 564 730.096 564H60.9627C56.7446 564 52.6993 562.326 49.7167 559.347C46.7341 556.367 45.0585 552.326 45.0585 548.113V538.094Z" fill="#2F2E41"/>
<path d="M746 529.953H45.0585V544.016H746V529.953Z" fill="#3F3D56"/>
<path d="M588.283 48.8312L596.333 53.9307L591.446 45.0536C592.83 43.9502 594.543 43.3394 596.314 43.3179C596.357 43.3179 596.4 43.3183 596.443 43.319C597.003 43.328 597.562 43.2867 598.114 43.1956L600.842 44.9238L599.672 42.7997C601.605 42.1263 603.276 40.8599 604.445 39.1815L609.328 42.2747L606.243 36.6721C609.098 33.248 612.948 31.1484 617.183 31.1484C622.261 31.1484 626.784 34.1651 629.704 38.8652C630.568 40.2716 631.788 41.4247 633.241 42.2076C634.695 42.9905 636.33 43.3753 637.981 43.3229C638.071 43.3196 638.162 43.3179 638.254 43.3179C643.859 43.3179 648.404 49.6669 648.404 57.4988C648.404 65.3308 643.859 71.6798 638.254 71.6798C637.021 71.6752 635.808 71.3718 634.718 70.7956C632.81 69.8692 630.723 69.368 628.602 69.3265C626.481 69.2851 624.376 69.7045 622.433 70.5557C620.791 71.2926 619.013 71.6756 617.213 71.6797C615.414 71.6839 613.633 71.3091 611.988 70.5798C610.06 69.7449 607.975 69.3337 605.874 69.3743C603.774 69.4149 601.706 69.9062 599.812 70.815C598.732 71.3788 597.532 71.6754 596.314 71.6798C590.708 71.6798 586.164 65.3308 586.164 57.4988C586.131 54.4778 586.86 51.4971 588.283 48.8312Z" fill="#F2F2F2"/>
<path d="M178.715 90.4797L183.836 93.7237L180.727 88.0767C181.608 87.3748 182.697 86.9863 183.824 86.9726C183.851 86.9726 183.879 86.9728 183.906 86.9733C184.262 86.9791 184.618 86.9528 184.969 86.8949L186.704 87.9942L185.96 86.643C187.19 86.2147 188.253 85.4091 188.996 84.3414L192.103 86.309L190.14 82.7451C190.967 81.6803 192.02 80.8126 193.223 80.2049C194.427 79.5972 195.751 79.2646 197.099 79.2313C200.33 79.2313 203.207 81.1503 205.064 84.1402C205.614 85.0348 206.39 85.7683 207.314 86.2663C208.239 86.7643 209.279 87.0091 210.329 86.9758C210.387 86.9737 210.445 86.9726 210.503 86.9726C214.069 86.9726 216.96 91.0114 216.96 95.9934C216.96 100.975 214.069 105.014 210.503 105.014C209.719 105.011 208.947 104.818 208.254 104.452C207.04 103.862 205.713 103.544 204.363 103.517C203.014 103.491 201.675 103.758 200.439 104.299C199.395 104.768 198.263 105.012 197.119 105.014C195.974 105.017 194.841 104.778 193.795 104.315C192.568 103.783 191.242 103.522 189.906 103.548C188.569 103.573 187.254 103.886 186.049 104.464C185.362 104.823 184.599 105.011 183.824 105.014C180.258 105.014 177.367 100.975 177.367 95.9934C177.346 94.0716 177.81 92.1755 178.715 90.4797Z" fill="#F2F2F2"/>
<path d="M40.8982 107.869L46.0191 111.113L42.91 105.466C43.7905 104.764 44.8802 104.376 46.0067 104.362C46.0342 104.362 46.0616 104.362 46.0891 104.363C46.4449 104.369 46.8005 104.342 47.1516 104.285L48.887 105.384L48.1431 104.033C49.3727 103.604 50.4353 102.799 51.1791 101.731L54.2853 103.699L52.323 100.135C53.1493 99.07 54.2026 98.2023 55.4062 97.5946C56.6099 96.9868 57.9339 96.6542 59.2822 96.621C62.5123 96.621 65.3897 98.5399 67.2472 101.53C67.7963 102.424 68.5726 103.158 69.4972 103.656C70.4219 104.154 71.4619 104.399 72.5119 104.365C72.5696 104.363 72.6275 104.362 72.6856 104.362C76.2515 104.362 79.1423 108.401 79.1423 113.383C79.1423 118.365 76.2515 122.404 72.6856 122.404C71.9015 122.401 71.1297 122.208 70.4367 121.841C69.2228 121.252 67.8953 120.933 66.546 120.907C65.1966 120.881 63.8577 121.147 62.6217 121.689C61.5775 122.158 60.4461 122.401 59.3013 122.404C58.1565 122.407 57.024 122.168 55.9776 121.704C54.7512 121.173 53.4249 120.912 52.0884 120.937C50.752 120.963 49.4368 121.276 48.2318 121.854C47.5449 122.212 46.7818 122.401 46.0066 122.404C42.4407 122.404 39.55 118.365 39.55 113.383C39.5292 111.461 39.9929 109.565 40.8982 107.869Z" fill="#F2F2F2"/>
<path d="M225.783 441.773L224.889 442.667C224.889 442.667 225.187 452.495 225.485 454.579C225.783 456.664 226.976 460.238 226.081 462.918C225.187 465.599 224.889 467.683 225.187 467.981C225.485 468.279 224.889 469.47 224.889 469.47L227.274 467.981L231.15 459.047L229.361 449.516L225.783 441.773Z" fill="#84C9BD"/>
<path opacity="0.1" d="M225.783 441.773L224.889 442.667C224.889 442.667 225.187 452.495 225.485 454.579C225.783 456.664 226.976 460.238 226.081 462.918C225.187 465.599 224.889 467.683 225.187 467.981C225.485 468.279 224.889 469.47 224.889 469.47L227.274 467.981L231.15 459.047L229.361 449.516L225.783 441.773Z" fill="black"/>
<path d="M241.585 534.394C241.585 534.394 241.585 531.118 240.988 530.523C240.392 529.927 239.498 527.842 238.305 527.842C237.112 527.842 232.939 529.034 232.939 529.332C232.973 530.261 232.767 531.184 232.342 532.012C231.746 532.905 228.466 536.479 231.746 537.075C232.836 537.254 233.951 537.214 235.026 536.959C236.101 536.703 237.114 536.236 238.007 535.586C238.305 535.288 239.498 534.99 239.796 535.288C240.094 535.586 241.585 534.394 241.585 534.394Z" fill="#84C9BD"/>
<path d="M249.932 529.034L251.721 532.31C251.721 532.31 252.318 535.288 253.212 535.586H254.106C254.106 535.586 255.001 538.862 257.088 538.564C259.175 538.266 261.56 537.075 261.56 536.479C261.56 535.884 261.56 534.097 260.665 533.501C259.411 532.478 258.217 531.384 257.088 530.225L255.597 528.736L249.932 529.034Z" fill="#84C9BD"/>
<path d="M227.052 419.941C226.478 420.233 225.983 420.659 225.608 421.183C225.233 421.706 224.99 422.312 224.898 422.949C224.732 425.075 226.836 427.079 226.159 429.101C225.775 430.25 224.578 430.994 224.234 432.155C224.052 433.081 224.188 434.04 224.62 434.88C225.09 436.031 225.664 437.137 226.332 438.186C227.589 440.157 229.225 442.027 229.56 444.34C229.654 444.744 229.649 445.165 229.548 445.568C229.447 445.97 229.252 446.343 228.979 446.655C229.584 446.198 230.276 445.869 231.013 445.689C234.06 444.672 236.891 443.097 239.361 441.045C240.258 440.414 240.934 439.517 241.291 438.481C241.746 436.651 240.356 434.821 240.489 432.94C240.575 431.737 241.27 430.675 241.663 429.535C242.005 428.4 242.114 427.207 241.984 426.029C241.853 424.851 241.485 423.711 240.903 422.679C240.42 421.68 239.739 420.789 238.902 420.061C238.064 419.333 237.086 418.783 236.029 418.444C234.403 418.066 232.706 418.115 231.104 418.587C229.705 418.877 228.344 419.331 227.052 419.941Z" fill="#2F2E41"/>
<path d="M228.73 436.456C229.387 435.237 230.359 434.217 231.545 433.502C232.731 432.788 234.087 432.404 235.473 432.392C240.243 432.392 239.348 432.094 239.348 432.094L237.858 438.05L234.876 441.029L228.73 436.456Z" fill="#84C9BD"/>
<path d="M229.957 430.158C229.957 430.158 232.64 434.626 230.852 436.413C229.063 438.199 229.957 439.986 230.255 440.284C230.553 440.582 238.901 441.178 238.901 441.178L239.199 437.008L240.094 433.434C240.094 433.434 235.324 432.541 235.92 430.456C236.516 428.371 229.957 430.158 229.957 430.158Z" fill="#FBBEBE"/>
<path opacity="0.1" d="M229.957 430.158C229.957 430.158 232.64 434.626 230.852 436.413C229.063 438.199 229.957 439.986 230.255 440.284C230.553 440.582 238.901 441.178 238.901 441.178L239.199 437.008L240.094 433.434C240.094 433.434 235.324 432.541 235.92 430.456C236.516 428.371 229.957 430.158 229.957 430.158Z" fill="black"/>
<path d="M250.827 472.448C250.508 473.471 250.109 474.466 249.634 475.427C249.336 475.724 248.442 473.342 248.442 473.342L249.336 471.257L250.827 472.448Z" fill="#FBBEBE"/>
<path d="M247.398 458.898L248.59 465.748H230.702L231.597 458.898H247.398Z" fill="#FBBEBE"/>
<path d="M233.237 432.541C236.365 432.541 238.901 430.007 238.901 426.882C238.901 423.757 236.365 421.224 233.237 421.224C230.108 421.224 227.572 423.757 227.572 426.882C227.572 430.007 230.108 432.541 233.237 432.541Z" fill="#FBBEBE"/>
<path d="M234.429 438.497C234.429 438.497 231.15 438.795 231.15 438.199C231.15 437.604 230.852 435.817 230.255 436.115C229.659 436.412 225.783 436.71 226.081 437.604C226.379 438.497 226.976 440.284 226.379 440.284C226.122 440.337 225.877 440.441 225.661 440.591C225.445 440.741 225.262 440.933 225.122 441.156C224.983 441.379 224.89 441.628 224.85 441.887C224.81 442.147 224.823 442.412 224.889 442.667C225.187 444.156 228.466 453.09 228.466 453.09C228.466 453.09 228.765 456.068 229.659 456.962C230.023 457.431 230.22 458.007 230.22 458.6C230.22 459.193 230.023 459.769 229.659 460.238C229.063 460.834 231.15 461.429 232.044 462.62C232.939 463.812 239.796 462.918 240.094 462.62C240.392 462.323 247.547 462.323 248.144 461.727C248.74 461.131 247.845 459.344 247.845 459.344C247.845 459.344 247.547 456.664 247.845 455.771C248.144 454.877 246.653 440.284 245.758 439.391C244.864 438.497 248.442 435.817 248.442 435.817C248.442 435.817 247.845 433.434 243.97 433.137C243.97 433.137 242.777 431.35 241.584 431.35C240.392 431.35 237.803 432.735 237.803 432.735C237.803 432.735 237.112 436.71 236.218 437.008C235.511 437.354 234.897 437.865 234.429 438.497Z" fill="#84C9BD"/>
<path d="M246.355 434.923L248.442 435.817C248.442 435.817 254.404 454.282 253.808 457.855C253.212 461.429 251.721 473.64 250.827 473.64C249.932 473.64 248.144 471.853 248.144 471.853V468.875C248.144 468.279 247.249 466.492 247.845 466.492C248.442 466.492 249.336 465.896 248.74 465.301C248.144 464.705 247.547 463.812 248.144 462.918C248.74 462.025 249.038 461.727 248.74 460.833C248.442 459.94 247.845 459.047 248.442 458.451C249.038 457.855 246.951 454.877 246.951 454.877L243.672 441.773L244.268 436.412L246.355 434.923Z" fill="#84C9BD"/>
<path d="M247.547 463.216C247.547 463.216 236.218 462.323 234.727 462.323C233.237 462.323 229.892 460.92 229.892 460.92C229.892 460.92 221.311 469.47 224.293 483.468C227.274 497.465 227.87 514.739 229.659 519.801C230.875 523.411 231.87 527.091 232.64 530.821C232.64 530.821 235.622 525.46 241.286 531.416C241.286 531.416 241.883 526.949 240.988 525.162C240.094 523.375 238.901 513.845 238.901 513.845C238.901 513.845 236.814 498.656 236.814 496.869C236.814 495.083 235.622 479.894 235.92 479.596C236.218 479.298 237.709 491.211 238.007 493.296C238.305 495.38 239.199 511.462 240.094 513.249C240.988 515.036 245.162 529.332 247.547 530.225C249.932 531.118 257.982 529.927 257.684 529.332C257.386 528.736 255.299 525.46 254.703 524.566L252.317 520.993L246.653 501.635L249.336 478.107C249.336 478.107 250.827 462.918 247.547 463.216Z" fill="#2F2E41"/>
<path d="M236.687 426.138H229.423C229.115 426.138 228.817 426.028 228.583 425.828C228.348 425.628 228.193 425.351 228.145 425.047L227.423 420.479H238.752L237.739 425.285C237.689 425.526 237.556 425.743 237.365 425.898C237.173 426.053 236.934 426.138 236.687 426.138Z" fill="#2F2E41"/>
<path d="M611.075 424.728H622.537V441.084C621.031 441.084 619.541 440.788 618.15 440.212C616.76 439.637 615.496 438.794 614.432 437.73C613.368 436.667 612.524 435.405 611.948 434.016C611.372 432.627 611.075 431.138 611.075 429.635V424.728Z" fill="#2F2E41"/>
<path d="M604.389 520.547L603.571 524.636H609.301L609.574 520.547H604.389Z" fill="#A0616A"/>
<path d="M604.389 523.818C604.389 523.818 603.298 523.001 602.752 523.546C602.206 524.091 600.296 534.722 600.023 534.995C599.75 535.268 591.563 539.357 593.473 539.629C595.384 539.902 602.752 540.175 603.843 539.629C604.935 539.084 607.937 533.905 607.937 533.905V538.539H608.483C608.483 538.539 609.028 533.632 610.393 532.269C611.757 530.906 609.301 526.272 609.301 526.272C609.301 526.272 609.847 523.273 609.574 523.273C609.301 523.273 604.389 523.818 604.389 523.818Z" fill="#84C9BD"/>
<path d="M621.308 517.685L620.49 521.774H626.221L626.494 517.685H621.308Z" fill="#A0616A"/>
<path d="M614.759 491.106C614.759 491.106 617.488 499.284 618.034 500.102C618.58 500.92 620.49 516.186 620.49 516.186C620.49 516.186 618.58 519.184 621.036 519.457C623.492 519.729 622.4 518.912 624.037 519.457C624.483 519.625 624.961 519.688 625.434 519.64C625.907 519.593 626.364 519.437 626.766 519.184C626.766 519.184 627.585 517.549 627.039 517.003C626.494 516.458 627.585 502.283 627.585 502.283L625.948 497.376L624.583 481.838C624.583 481.838 626.221 477.749 625.402 476.658C624.583 475.568 621.854 477.476 621.854 477.476L614.759 491.106Z" fill="#2F2E41"/>
<path d="M611.212 469.843C611.212 469.843 610.393 478.567 609.847 479.112C609.301 479.657 603.298 494.923 603.298 494.923C603.298 494.923 601.66 496.831 602.206 503.918C602.752 511.006 604.116 518.094 604.116 518.094C604.116 518.094 603.025 522.183 604.935 522.183C606.845 522.183 607.664 521.092 608.483 521.91C609.301 522.728 609.847 521.91 610.12 521.365C610.393 520.82 611.484 518.912 611.484 518.366C611.484 517.821 612.576 503.919 612.576 503.919C612.576 503.919 621.582 484.019 622.4 482.928C623.219 481.838 627.858 475.841 627.585 471.752L611.212 469.843Z" fill="#2F2E41"/>
<path d="M618.034 433.042C621.199 433.042 623.765 430.479 623.765 427.317C623.765 424.156 621.199 421.593 618.034 421.593C614.869 421.593 612.303 424.156 612.303 427.317C612.303 430.479 614.869 433.042 618.034 433.042Z" fill="#A0616A"/>
<path d="M616.942 432.224C616.942 432.224 619.125 437.131 619.398 438.494C619.671 439.857 624.856 435.768 624.856 435.768C624.856 435.768 622.127 431.134 622.946 428.953L616.942 432.224Z" fill="#A0616A"/>
<path d="M625.675 434.95C625.675 434.95 621.581 431.952 618.58 438.221C615.578 444.491 614.759 444.219 614.759 444.219C614.759 444.219 611.211 445.309 612.303 452.942C613.395 460.575 608.755 470.661 610.666 471.206C612.576 471.751 630.314 474.75 630.314 472.569C630.314 470.388 628.677 461.938 630.041 456.758C631.406 451.579 628.131 433.587 625.675 434.95Z" fill="#3F3D56"/>
<path d="M621.581 436.313C621.581 436.313 618.307 441.22 618.58 445.037C618.853 448.853 618.853 451.306 618.853 451.306C618.853 451.306 613.395 477.476 614.486 477.476C615.578 477.476 618.853 478.839 619.125 478.021C619.398 477.204 626.221 460.575 626.221 460.575C626.221 460.575 627.858 443.946 625.948 440.13C624.038 436.313 621.581 436.313 621.581 436.313Z" fill="#3F3D56"/>
<path d="M615.032 476.658C615.032 476.658 612.303 485.927 616.124 486.199C619.944 486.472 617.761 477.204 617.761 477.204L615.032 476.658Z" fill="#A0616A"/>
<path d="M622.295 519.651C622.295 519.651 621.339 518.934 620.861 519.412C620.383 519.889 618.711 529.2 618.472 529.438C618.233 529.677 611.063 533.258 612.736 533.497C614.409 533.735 620.861 533.974 621.817 533.497C622.773 533.019 625.402 528.483 625.402 528.483V532.542H625.88C625.88 532.542 626.358 528.245 627.553 527.051C628.748 525.857 626.597 521.799 626.597 521.799C626.597 521.799 627.075 519.173 626.836 519.173C626.597 519.173 622.295 519.651 622.295 519.651Z" fill="#84C9BD"/>
<path d="M615.201 423.566C615.383 423.344 615.622 423.176 615.892 423.078C616.144 423.032 616.404 423.055 616.644 423.143C618.355 423.641 619.84 424.72 620.842 426.192C621.037 426.567 621.329 426.883 621.688 427.106C621.922 427.176 622.151 427.263 622.372 427.367C623.01 427.788 622.63 428.764 622.263 429.435C621.323 431.158 620.89 433.112 621.011 435.071C621.003 435.412 621.104 435.746 621.298 436.026C621.607 436.312 622.011 436.473 622.432 436.478C623.757 436.645 625.091 436.716 626.426 436.692C627.732 436.668 629.181 436.483 630.028 435.489C630.937 434.42 630.795 432.784 630.203 431.511C629.611 430.239 628.649 429.176 627.965 427.95C627.317 426.655 626.805 425.297 626.438 423.896C625.965 422.109 625.203 420.41 624.182 418.868C623.667 418.1 622.998 417.446 622.219 416.947C621.439 416.447 620.566 416.114 619.651 415.967C617.172 415.69 614.886 417.215 612.894 418.714C610.656 420.397 608.275 422.48 608.095 425.272C607.95 427.534 609.31 429.58 610.02 431.733C611.117 435.057 610.657 438.667 610.186 442.134C612.207 440.925 614.493 439.246 614.36 436.897C614.271 435.312 613.074 434.047 612.329 432.645C610.28 428.79 612.616 426.205 615.201 423.566Z" fill="#2F2E41"/>
<path d="M695.79 451.428C697.525 448.404 698.421 444.973 698.386 441.489C698.386 432.506 692.818 425.224 685.949 425.224C679.08 425.224 673.511 432.506 673.511 441.489C673.477 444.973 674.373 448.404 676.107 451.428C674.405 454.465 673.511 457.887 673.511 461.368C673.511 464.848 674.405 468.27 676.107 471.307C674.405 474.344 673.511 477.766 673.511 481.247C673.511 484.727 674.405 488.149 676.107 491.186C674.405 494.223 673.511 497.645 673.511 501.126C673.511 504.606 674.405 508.028 676.107 511.065C674.373 514.089 673.477 517.52 673.511 521.005C673.511 529.987 679.08 537.269 685.949 537.269C692.818 537.269 698.386 529.987 698.386 521.005C698.421 517.52 697.525 514.089 695.79 511.065C697.493 508.028 698.386 504.606 698.386 501.126C698.386 497.645 697.493 494.223 695.79 491.186C697.493 488.149 698.386 484.727 698.386 481.247C698.386 477.766 697.493 474.344 695.79 471.307C697.493 468.27 698.386 464.848 698.386 461.368C698.386 457.887 697.493 454.465 695.79 451.428Z" fill="#3F3D56"/>
<path d="M685.949 437.874C692.818 437.874 698.386 430.592 698.386 421.61C698.386 412.627 692.818 405.345 685.949 405.345C679.08 405.345 673.511 412.627 673.511 421.61C673.511 430.592 679.08 437.874 685.949 437.874Z" fill="#3F3D56"/>
<path d="M685.949 417.995C692.818 417.995 698.386 410.713 698.386 401.731C698.386 392.748 692.818 385.466 685.949 385.466C679.08 385.466 673.511 392.748 673.511 401.731C673.511 410.713 679.08 417.995 685.949 417.995Z" fill="#3F3D56"/>
<path d="M732.509 265.692C734.208 263.531 735.756 261.256 737.141 258.882L704.46 253.52L739.806 253.783C743.196 246.413 745.046 238.43 745.242 230.322C745.437 222.214 743.975 214.151 740.943 206.627L693.523 231.2L737.256 199.088C733.158 192.015 727.647 185.861 721.065 181.009C714.484 176.157 706.972 172.711 698.999 170.885C691.025 169.06 682.761 168.894 674.721 170.397C666.681 171.901 659.036 175.043 652.264 179.627C645.493 184.21 639.738 190.138 635.359 197.04C630.981 203.942 628.072 211.671 626.814 219.745C625.556 227.819 625.976 236.066 628.048 243.971C630.119 251.876 633.798 259.27 638.855 265.693C636.206 269.056 633.928 272.695 632.061 276.546L674.483 298.562L629.249 283.397C626.073 292.776 625.288 302.798 626.965 312.556C628.642 322.314 632.729 331.5 638.855 339.284C631.943 348.062 627.643 358.606 626.447 369.711C625.251 380.815 627.207 392.032 632.092 402.078C636.977 412.124 644.593 420.594 654.07 426.521C663.547 432.447 674.502 435.589 685.682 435.589C696.863 435.589 707.817 432.447 717.294 426.521C726.771 420.594 734.387 412.124 739.272 402.078C744.157 392.032 746.113 380.815 744.917 369.711C743.721 358.606 739.421 348.062 732.509 339.284C740.769 328.793 745.259 315.834 745.259 302.488C745.259 289.142 740.769 276.183 732.509 265.692V265.692Z" fill="#F2F2F2"/>
<path d="M626.105 302.488C626.085 315.838 630.577 328.803 638.855 339.284C631.943 348.062 627.643 358.606 626.447 369.711C625.251 380.815 627.207 392.032 632.092 402.078C636.977 412.124 644.593 420.594 654.07 426.521C663.547 432.447 674.502 435.59 685.682 435.59C696.863 435.59 707.817 432.447 717.294 426.521C726.771 420.594 734.387 412.124 739.272 402.078C744.157 392.032 746.113 380.815 744.917 369.711C743.721 358.606 739.421 348.062 732.509 339.284C740.494 329.158 626.105 295.809 626.105 302.488Z" fill="#F2F2F2"/>
<path d="M732.509 265.692C734.208 263.531 735.756 261.256 737.141 258.882L704.46 253.52L739.806 253.783C743.196 246.413 745.046 238.43 745.242 230.322C745.437 222.214 743.975 214.151 740.943 206.627L693.523 231.2L737.256 199.088C733.158 192.015 727.647 185.861 721.065 181.009C714.484 176.157 706.972 172.711 698.999 170.885C691.025 169.06 682.761 168.894 674.721 170.397C666.681 171.901 659.036 175.043 652.264 179.627C645.493 184.21 639.738 190.138 635.359 197.04C630.981 203.942 628.072 211.671 626.814 219.745C625.556 227.819 625.976 236.066 628.048 243.971C630.119 251.876 633.798 259.27 638.855 265.693C636.206 269.056 633.928 272.695 632.061 276.546L674.483 298.562L629.249 283.397C626.073 292.776 625.288 302.798 626.965 312.556C628.642 322.314 632.729 331.5 638.855 339.284C631.943 348.062 627.643 358.606 626.447 369.711C625.251 380.815 627.207 392.032 632.092 402.078C636.977 412.124 644.593 420.594 654.07 426.521C663.547 432.447 674.502 435.589 685.682 435.589C696.863 435.589 707.817 432.447 717.294 426.521C726.771 420.594 734.387 412.124 739.272 402.078C744.157 392.032 746.113 380.815 744.917 369.711C743.721 358.606 739.421 348.062 732.509 339.284C740.769 328.793 745.259 315.834 745.259 302.488C745.259 289.142 740.769 276.183 732.509 265.692V265.692Z" fill="#57B894"/>
<path opacity="0.1" d="M626.105 302.488C626.085 315.838 630.577 328.803 638.855 339.284C631.943 348.062 627.643 358.606 626.447 369.711C625.251 380.815 627.207 392.032 632.092 402.078C636.977 412.124 644.593 420.594 654.07 426.521C663.547 432.447 674.502 435.59 685.682 435.59C696.863 435.59 707.817 432.447 717.294 426.521C726.771 420.594 734.387 412.124 739.272 402.078C744.157 392.032 746.113 380.815 744.917 369.711C743.721 358.606 739.421 348.062 732.509 339.284C740.494 329.158 626.105 295.809 626.105 302.488Z" fill="black"/>
<path d="M69.6852 451.428C71.4194 448.404 72.3155 444.973 72.2812 441.489C72.2812 432.506 66.7126 425.224 59.8435 425.224C52.9743 425.224 47.4057 432.506 47.4057 441.489C47.3714 444.973 48.2675 448.404 50.0017 451.428C48.2995 454.465 47.4057 457.887 47.4057 461.368C47.4057 464.848 48.2995 468.27 50.0017 471.307C48.2995 474.344 47.4057 477.766 47.4057 481.247C47.4057 484.727 48.2995 488.149 50.0017 491.186C48.2995 494.223 47.4057 497.645 47.4057 501.126C47.4057 504.606 48.2995 508.028 50.0017 511.065C48.2675 514.089 47.3714 517.52 47.4057 521.005C47.4057 529.987 52.9743 537.269 59.8435 537.269C66.7126 537.269 72.2812 529.987 72.2812 521.005C72.3155 517.52 71.4194 514.089 69.6852 511.065C71.3874 508.028 72.2812 504.606 72.2812 501.126C72.2812 497.645 71.3874 494.223 69.6852 491.186C71.3874 488.149 72.2812 484.727 72.2812 481.247C72.2812 477.766 71.3874 474.344 69.6852 471.307C71.3874 468.27 72.2812 464.848 72.2812 461.368C72.2812 457.887 71.3874 454.465 69.6852 451.428Z" fill="#3F3D56"/>
<path d="M59.8434 437.874C66.7126 437.874 72.2812 430.592 72.2812 421.61C72.2812 412.627 66.7126 405.345 59.8434 405.345C52.9743 405.345 47.4057 412.627 47.4057 421.61C47.4057 430.592 52.9743 437.874 59.8434 437.874Z" fill="#3F3D56"/>
<path d="M59.8434 417.995C66.7126 417.995 72.2812 410.713 72.2812 401.731C72.2812 392.748 66.7126 385.466 59.8434 385.466C52.9743 385.466 47.4057 392.748 47.4057 401.731C47.4057 410.713 52.9743 417.995 59.8434 417.995Z" fill="#3F3D56"/>
<path d="M106.404 265.692C108.103 263.531 109.651 261.256 111.036 258.882L78.3548 253.52L113.7 253.783C117.091 246.413 118.941 238.43 119.136 230.322C119.332 222.214 117.869 214.151 114.838 206.627L67.4178 231.2L111.15 199.088C107.053 192.015 101.542 185.861 94.9602 181.009C88.3783 176.157 80.8668 172.711 72.8935 170.885C64.9202 169.06 56.6559 168.894 48.6156 170.397C40.5752 171.901 32.931 175.043 26.1591 179.627C19.3872 184.21 13.6327 190.138 9.25417 197.04C4.8756 203.942 1.96672 211.671 0.708748 219.745C-0.549225 227.819 -0.129345 236.066 1.94224 243.971C4.01382 251.876 7.69272 259.27 12.7498 265.693C10.1011 269.056 7.82309 272.695 5.95523 276.546L48.3777 298.562L3.14351 283.397C-0.032609 292.776 -0.817529 302.798 0.859774 312.556C2.53708 322.314 6.62367 331.5 12.7498 339.284C5.83758 348.062 1.53773 358.606 0.341799 369.711C-0.854131 380.815 1.10213 392.032 5.98692 402.078C10.8717 412.124 18.4879 420.594 27.9647 426.521C37.4414 432.447 48.3963 435.589 59.5769 435.589C70.7574 435.589 81.7123 432.447 91.1891 426.521C100.666 420.594 108.282 412.124 113.167 402.078C118.052 392.032 120.008 380.815 118.812 369.711C117.616 358.606 113.316 348.062 106.404 339.284C114.663 328.793 119.154 315.834 119.154 302.488C119.154 289.142 114.663 276.183 106.404 265.692L106.404 265.692Z" fill="#F2F2F2"/>
<path d="M5.47635e-06 302.488C-0.0205648 315.838 4.47201 328.803 12.7498 339.284C5.83758 348.062 1.53773 358.606 0.341799 369.711C-0.854131 380.815 1.10213 392.032 5.98692 402.078C10.8717 412.124 18.4879 420.594 27.9647 426.521C37.4414 432.447 48.3963 435.59 59.5769 435.59C70.7574 435.59 81.7123 432.447 91.1891 426.521C100.666 420.594 108.282 412.124 113.167 402.078C118.052 392.032 120.008 380.815 118.812 369.711C117.616 358.606 113.316 348.062 106.404 339.284C114.389 329.158 5.47635e-06 295.809 5.47635e-06 302.488Z" fill="#F2F2F2"/>
<path d="M106.404 265.692C108.103 263.531 109.651 261.256 111.036 258.882L78.3548 253.52L113.7 253.783C117.091 246.413 118.941 238.43 119.136 230.322C119.332 222.214 117.869 214.151 114.838 206.627L67.4178 231.2L111.15 199.088C107.053 192.015 101.542 185.861 94.9602 181.009C88.3783 176.157 80.8668 172.711 72.8935 170.885C64.9202 169.06 56.6559 168.894 48.6156 170.397C40.5752 171.901 32.931 175.043 26.1591 179.627C19.3872 184.21 13.6327 190.138 9.25417 197.04C4.8756 203.942 1.96672 211.671 0.708748 219.745C-0.549225 227.819 -0.129345 236.066 1.94224 243.971C4.01382 251.876 7.69272 259.27 12.7498 265.693C10.1011 269.056 7.82309 272.695 5.95523 276.546L48.3777 298.562L3.14351 283.397C-0.032609 292.776 -0.817529 302.798 0.859774 312.556C2.53708 322.314 6.62367 331.5 12.7498 339.284C5.83758 348.062 1.53773 358.606 0.341799 369.711C-0.854131 380.815 1.10213 392.032 5.98692 402.078C10.8717 412.124 18.4879 420.594 27.9647 426.521C37.4414 432.447 48.3963 435.589 59.5769 435.589C70.7574 435.589 81.7123 432.447 91.1891 426.521C100.666 420.594 108.282 412.124 113.167 402.078C118.052 392.032 120.008 380.815 118.812 369.711C117.616 358.606 113.316 348.062 106.404 339.284C114.663 328.793 119.154 315.834 119.154 302.488C119.154 289.142 114.663 276.183 106.404 265.692L106.404 265.692Z" fill="#57B894"/>
<path opacity="0.1" d="M5.47635e-06 302.488C-0.0205648 315.838 4.47201 328.803 12.7498 339.284C5.83758 348.062 1.53773 358.606 0.341799 369.711C-0.854131 380.815 1.10213 392.032 5.98692 402.078C10.8717 412.124 18.4879 420.594 27.9647 426.521C37.4414 432.447 48.3963 435.59 59.5769 435.59C70.7574 435.59 81.7123 432.447 91.1891 426.521C100.666 420.594 108.282 412.124 113.167 402.078C118.052 392.032 120.008 380.815 118.812 369.711C117.616 358.606 113.316 348.062 106.404 339.284C114.389 329.158 5.47635e-06 295.809 5.47635e-06 302.488Z" fill="black"/>
<path d="M429.347 262.427L399.786 291.957L385.779 277.966L380.327 283.413L399.767 302.832L434.8 267.874L429.347 262.427Z" fill="#57B894"/>
<path d="M523.448 195.073L493.887 224.602L479.88 210.612L474.428 216.059L493.868 235.478L528.901 200.52L523.448 195.073Z" fill="#57B894"/>
</g>
<defs>
<clipPath id="clip0_6_1404">
<rect width="746" height="564" fill="white"/>
</clipPath>
</defs>
</svg>
