<svg width="20" height="20" viewBox="0 0 20 20" fill="none" xmlns="http://www.w3.org/2000/svg">
<path fill-rule="evenodd" clip-rule="evenodd" d="M10 0.833008C15.063 0.833008 19.167 4.937 19.167 10C19.167 15.063 15.063 19.167 10 19.167C4.937 19.167 0.833008 15.063 0.833008 10C0.833008 4.937 4.937 0.833008 10 0.833008ZM10 2.66699C5.95 2.66699 2.66699 5.95 2.66699 10C2.66699 14.05 5.95 17.333 10 17.333C14.05 17.333 17.333 14.05 17.333 10C17.333 5.95 14.05 2.66699 10 2.66699ZM10 8.16699C10.506 8.16699 10.917 8.57701 10.917 9.08301V14.583C10.917 15.09 10.506 15.5 10 15.5C9.494 15.5 9.08301 15.09 9.08301 14.583V9.08301C9.08301 8.57701 9.494 8.16699 10 8.16699ZM10 4.5C10.506 4.5 10.917 4.90999 10.917 5.41699C10.917 5.92299 10.506 6.33301 10 6.33301C9.494 6.33301 9.08301 5.92299 9.08301 5.41699C9.08301 4.90999 9.494 4.5 10 4.5Z" fill="#F53B57"/>
</svg>
