<svg width="20" height="20" viewBox="0 0 20 20" fill="none" xmlns="http://www.w3.org/2000/svg">
<path fill-rule="evenodd" clip-rule="evenodd" d="M10 0.833008C15.06 0.833008 19.17 4.937 19.17 10C19.17 15.063 15.06 19.167 10 19.167C4.94 19.167 0.830017 15.063 0.830017 10C0.830017 4.937 4.94 0.833008 10 0.833008ZM10 2.66699C5.95 2.66699 2.66998 5.95 2.66998 10C2.66998 14.05 5.95 17.333 10 17.333C14.05 17.333 17.33 14.05 17.33 10C17.33 5.95 14.05 2.66699 10 2.66699ZM10 8.16699C10.51 8.16699 10.92 8.57701 10.92 9.08301V14.583C10.92 15.09 10.51 15.5 10 15.5C9.49 15.5 9.07996 15.09 9.07996 14.583V9.08301C9.07996 8.57701 9.49 8.16699 10 8.16699ZM10 4.5C10.51 4.5 10.92 4.90999 10.92 5.41699C10.92 5.92299 10.51 6.33301 10 6.33301C9.49 6.33301 9.07996 5.92299 9.07996 5.41699C9.07996 4.90999 9.49 4.5 10 4.5Z" fill="#43AB8C"/>
</svg>
