
        <svg width="500" height="480" viewBox="0 0 611 502" fill="none" xmlns="http://www.w3.org/2000/svg">
<path d="M217.838 104.103H215.438V38.1639C215.438 33.1522 214.453 28.1895 212.541 23.5592C210.628 18.929 207.824 14.7218 204.29 11.178C200.756 7.63412 196.561 4.82299 191.943 2.90507C187.325 0.987149 182.376 4.24635e-06 177.378 0H38.0594C27.9655 -1.92954e-05 18.2849 4.02078 11.1474 11.1779C4.00985 18.335 2.13807e-05 28.0421 0 38.1638V399.912C-5.2933e-06 404.924 0.98443 409.887 2.89709 414.517C4.80974 419.147 7.61317 423.354 11.1473 426.898C14.6814 430.442 18.8771 433.253 23.4947 435.171C28.1122 437.089 33.0613 438.076 38.0593 438.076H177.378C187.472 438.076 197.153 434.055 204.29 426.898C211.428 419.741 215.438 410.034 215.438 399.912V151.04H217.838V104.103Z" fill="#3F3D56"/>
<path d="M178.914 9.92871H160.728C161.564 11.9847 161.884 14.2154 161.658 16.4243C161.432 18.6331 160.668 20.7524 159.432 22.5953C158.197 24.4383 156.529 25.9483 154.575 26.9925C152.621 28.0367 150.44 28.5829 148.226 28.5831H68.4119C66.1975 28.5829 64.0172 28.0367 62.0629 26.9925C60.1087 25.9483 58.4405 24.4383 57.2053 22.5953C55.9702 20.7524 55.2059 18.6331 54.98 16.4243C54.754 14.2154 55.0733 11.9847 55.9096 9.92871H38.9241C35.1916 9.92871 31.4957 10.6659 28.0474 12.0982C24.599 13.5304 21.4657 15.6298 18.8265 18.2763C16.1872 20.9228 14.0937 24.0646 12.6653 27.5224C11.2369 30.9803 10.5018 34.6863 10.5018 38.4291V399.647C10.5018 403.389 11.2369 407.095 12.6653 410.553C14.0937 414.011 16.1872 417.153 18.8265 419.799C21.4657 422.446 24.599 424.545 28.0473 425.978C31.4957 427.41 35.1916 428.147 38.9241 428.147H178.914C182.646 428.147 186.342 427.41 189.791 425.978C193.239 424.545 196.372 422.446 199.011 419.799C201.651 417.153 203.744 414.011 205.173 410.553C206.601 407.095 207.336 403.389 207.336 399.647V38.4291C207.336 34.6863 206.601 30.9803 205.173 27.5224C203.744 24.0646 201.651 20.9228 199.011 18.2763C196.372 15.6298 193.239 13.5304 189.791 12.0982C186.342 10.6659 182.646 9.92871 178.914 9.92871Z" fill="white"/>
<path d="M108.919 279.438C146.517 279.438 176.996 248.875 176.996 211.174C176.996 173.473 146.517 142.91 108.919 142.91C71.3211 142.91 40.8419 173.473 40.8419 211.174C40.8419 248.875 71.3211 279.438 108.919 279.438Z" fill="#57B894"/>
<path d="M102.173 237.215C100.641 237.218 99.1506 236.721 97.9253 235.799L97.8493 235.742L81.8502 223.47C81.1092 222.9 80.4874 222.19 80.0202 221.379C79.553 220.569 79.2497 219.674 79.1274 218.746C79.0051 217.817 79.0664 216.874 79.3076 215.97C79.5489 215.065 79.9655 214.217 80.5335 213.474C81.1016 212.731 81.8101 212.108 82.6184 211.639C83.4268 211.171 84.3193 210.867 85.245 210.744C86.1706 210.621 87.1113 210.683 88.0132 210.925C88.9152 211.167 89.7608 211.584 90.5018 212.154L100.865 220.123L125.353 188.087C125.921 187.345 126.629 186.721 127.437 186.253C128.245 185.785 129.137 185.481 130.062 185.358C130.987 185.236 131.928 185.297 132.829 185.539C133.731 185.781 134.576 186.198 135.317 186.768L135.319 186.769L135.167 186.981L135.323 186.769C136.817 187.921 137.795 189.62 138.041 191.493C138.288 193.367 137.783 195.262 136.638 196.763L107.834 234.426C107.168 235.294 106.311 235.996 105.33 236.478C104.35 236.961 103.271 237.21 102.179 237.207L102.173 237.215Z" fill="white"/>
<path d="M514.212 444.848C515.04 443.505 516.015 442.259 517.119 441.133C517.574 440.66 518.054 440.214 518.549 439.78C521.559 437.094 525.228 435.259 529.179 434.466C533.131 433.673 537.221 433.95 541.031 435.267C544.84 436.585 548.231 438.897 550.854 441.964C553.477 445.031 555.238 448.744 555.956 452.72C559.281 440.39 550.626 428.246 541.924 418.917C533.218 409.592 523.267 399.362 523.317 386.584C523.342 379.474 526.81 373.13 532.047 368.427C532.209 368.285 532.37 368.143 532.535 368.005C538.865 362.565 547.009 359.719 555.34 360.036C570.817 360.867 584.332 371.298 593.717 383.671C608.823 403.579 615.443 431.524 604.867 454.186C595.565 474.118 575.726 485.954 555.478 495.469C552.65 496.798 549.829 498.087 547.013 499.336C546.994 499.341 546.974 499.354 546.955 499.359C546.819 499.419 546.684 499.478 546.557 499.54C545.976 499.797 545.394 500.054 544.818 500.308L545.085 500.483L545.917 501.024C545.629 500.848 545.343 500.678 545.055 500.503C544.969 500.45 544.878 500.4 544.792 500.347C534.848 494.363 524.765 488.034 517.895 478.692C510.769 468.994 507.905 455.101 514.212 444.848Z" fill="#F1F1F1"/>
<path d="M580.561 422.324C582.763 427.347 584.223 432.665 584.895 438.111C585.423 442.967 585.224 447.875 584.305 452.672C582.331 462.53 578.024 471.768 571.747 479.609C567.012 485.562 561.546 490.891 555.478 495.469C552.651 496.798 549.829 498.087 547.013 499.336C546.994 499.341 546.974 499.354 546.955 499.359C546.82 499.419 546.684 499.479 546.557 499.54C545.976 499.797 545.394 500.054 544.818 500.308L545.085 500.483L545.918 501.024C545.629 500.848 545.343 500.678 545.055 500.503C544.969 500.45 544.878 500.4 544.793 500.347C546.981 492.671 547.303 484.58 545.731 476.754C544.159 468.927 540.739 461.592 535.758 455.364C530.75 449.214 524.363 444.338 517.119 441.133C517.574 440.66 518.054 440.214 518.549 439.78C521.339 441.065 524.011 442.595 526.533 444.352C535.552 450.602 542.324 459.599 545.847 470.009C548.992 479.454 549.385 489.602 546.98 499.263C547.479 498.936 547.98 498.6 548.467 498.266C557.731 492.001 566.27 484.477 572.701 475.251C578.248 467.453 581.797 458.407 583.037 448.91C584.27 438.536 581.681 428.334 577.062 419.077C571.961 409.173 565.534 400.016 557.959 391.859C550.351 383.476 541.748 376.059 532.342 369.772C532.13 369.629 531.982 369.409 531.927 369.159C531.872 368.909 531.915 368.647 532.047 368.428C532.148 368.228 532.323 368.076 532.535 368.005C532.643 367.978 532.755 367.975 532.864 367.997C532.973 368.019 533.075 368.066 533.164 368.133C534.325 368.91 535.476 369.693 536.613 370.501C546.085 377.226 554.687 385.105 562.221 393.956C569.501 402.489 576.127 411.968 580.561 422.324Z" fill="white"/>
<path d="M377.807 31.697C385.792 31.697 392.265 25.2063 392.265 17.1996C392.265 9.19287 385.792 2.70215 377.807 2.70215C369.822 2.70215 363.349 9.19287 363.349 17.1996C363.349 25.2063 369.822 31.697 377.807 31.697Z" fill="#F1F1F1"/>
<path d="M557.581 225.706C562.449 225.706 566.395 221.749 566.395 216.868C566.395 211.986 562.449 208.029 557.581 208.029C552.712 208.029 548.766 211.986 548.766 216.868C548.766 221.749 552.712 225.706 557.581 225.706Z" fill="#F1F1F1"/>
<path d="M299.609 249.957C304.478 249.957 308.424 246 308.424 241.119C308.424 236.237 304.478 232.28 299.609 232.28C294.741 232.28 290.795 236.237 290.795 241.119C290.795 246 294.741 249.957 299.609 249.957Z" fill="#F1F1F1"/>
<path d="M577.838 78.1174C578.241 75.2461 577.58 72.3263 575.98 69.9111C574.38 67.4959 571.952 65.7533 569.156 65.0133C566.36 64.2733 563.39 64.5875 560.81 65.8962C558.23 67.205 556.218 69.4174 555.155 72.1143L530.231 100.767L537.544 121.248L562.61 87.7691C564.246 88.2945 565.976 88.4538 567.68 88.236C569.384 88.0181 571.019 87.4283 572.471 86.5081C573.923 85.5879 575.156 84.3597 576.083 82.91C577.01 81.4603 577.609 79.8243 577.838 78.1174Z" fill="#FFB7B7"/>
<path d="M474.523 189.603L557.258 101.063L546.099 83.272L442.327 171.275L474.523 189.603Z" fill="#3F3D56"/>
<path d="M456.058 135.807C472.086 135.807 485.079 122.778 485.079 106.705C485.079 90.6332 472.086 77.604 456.058 77.604C440.029 77.604 427.036 90.6332 427.036 106.705C427.036 122.778 440.029 135.807 456.058 135.807Z" fill="#2F2E41"/>
<path d="M458.39 90.2658C464.635 83.9156 472.193 79.0152 480.53 75.9097C485.882 73.9216 491.707 72.6932 497.302 73.8223C502.898 74.9513 508.189 78.8327 509.75 84.3374C511.026 88.8388 509.708 93.6853 507.727 97.9226C505.746 102.16 503.102 106.089 501.5 110.485C499.865 114.969 499.374 119.793 500.07 124.516C500.766 129.24 502.627 133.715 505.485 137.534C508.344 141.353 512.108 144.396 516.436 146.387C520.764 148.378 525.52 149.253 530.271 148.933C524.774 149.672 519.706 152.262 514.333 153.641C508.959 155.02 502.617 154.927 498.624 151.066C494.399 146.982 494.314 140.342 494.518 134.46C494.822 125.718 495.126 116.975 495.429 108.233C495.584 103.774 495.716 99.1729 494.113 95.0115C492.509 90.8501 488.699 87.2061 484.25 87.244C480.878 87.2726 477.894 89.3209 475.19 91.3408C472.485 93.3608 469.624 95.5159 466.265 95.8163C462.906 96.1168 459.072 93.6244 459.323 90.2527L458.39 90.2658Z" fill="#2F2E41"/>
<path d="M345.831 302.107C343.045 302.884 340.072 302.608 337.475 301.333C334.878 300.057 332.837 297.871 331.74 295.188C330.643 292.506 330.566 289.512 331.523 286.776C332.48 284.04 334.404 281.751 336.932 280.342L362.004 251.82L383.21 256.414L353.384 285.708C354.117 287.265 354.501 288.965 354.508 290.687C354.515 292.409 354.146 294.112 353.426 295.676C352.706 297.239 351.652 298.626 350.34 299.737C349.028 300.848 347.489 301.657 345.831 302.107H345.831Z" fill="#FFB7B7"/>
<path d="M428.318 199.996L365.828 278.65L346.781 269.881L420.23 155.217L428.318 199.996Z" fill="#3F3D56"/>
<path d="M378.457 437.501L363.564 437.266L365.355 488.166H378.455L378.457 437.501Z" fill="#FFB7B7"/>
<path d="M381.796 483.878L355.998 483.877H355.997C351.637 483.877 347.455 485.614 344.372 488.706C341.289 491.797 339.557 495.99 339.556 500.362V500.898L381.795 500.9L381.796 483.878Z" fill="#2F2E41"/>
<path d="M477.064 424.001L460.795 434.474L493.338 473.733L504.361 466.636L477.064 424.001Z" fill="#FFB7B7"/>
<path d="M504.862 461.217L483.153 475.193L483.152 475.193C479.484 477.555 476.901 481.282 475.972 485.554C475.043 489.826 475.845 494.293 478.2 497.972L478.489 498.423L514.033 475.541L504.862 461.217Z" fill="#2F2E41"/>
<path d="M482.86 268.574C482.86 268.574 446.712 148.185 435.095 146.558C423.478 144.931 404.761 177.449 404.761 177.449C380.493 208.497 355.469 309.069 355.469 309.069C355.469 309.069 397.185 311.686 427.68 327.955C458.174 344.224 494.162 327.131 494.162 327.131L482.86 268.574Z" fill="#3F3D56"/>
<path opacity="0.1" d="M482.86 268.574C482.86 268.574 446.712 148.185 435.095 146.558C423.478 144.932 409.515 177.779 409.515 177.779C397.422 227.898 355.469 309.069 355.469 309.069C355.469 309.069 397.185 311.687 427.68 327.955C458.174 344.224 494.162 327.132 494.162 327.132L482.86 268.574Z" fill="black"/>
<path d="M453.203 232.555V293.049L460.303 380.68L495.774 446.967L478.845 459.092L430.475 396.039L411.344 333.432L381.299 472.026L358.727 470.41L374.404 278.25L404.152 224.162L453.203 232.555Z" fill="#2F2E41"/>
<path d="M416.757 174.043C405.471 185.36 415.951 197.486 415.951 197.486L403.052 226.587L453.841 240.329L471.589 160.803L459.497 147.869C435.312 147.061 435.299 146.558 435.299 146.558C431.062 150.716 416.757 174.043 416.757 174.043Z" fill="#57B894"/>
<path d="M473.634 152.564C471.328 150.857 468.706 149.625 465.922 148.941C463.137 148.257 460.244 148.133 457.412 148.578C454.579 149.022 451.863 150.026 449.42 151.531C446.977 153.036 444.856 155.011 443.18 157.344C430.412 175.17 418.606 203.956 434.873 239.856C460.991 297.501 483.721 327.01 492.961 327.007C493.364 327.011 493.765 326.947 494.148 326.82C499.836 324.885 508.059 315.235 509.548 306.73C510.081 303.686 509.954 299.446 506.324 296.535C495.896 288.171 477.175 262.129 471.335 227.852C468.108 208.912 474.366 191.66 480.185 180.522C482.643 175.913 483.362 170.571 482.21 165.474C481.059 160.377 478.114 155.867 473.915 152.771L473.634 152.564Z" fill="#3F3D56"/>
<path d="M457.55 132.948C467.903 127.273 471.708 114.257 466.048 103.876C460.389 93.4945 447.409 89.6792 437.056 95.3541C426.703 101.029 422.898 114.045 428.558 124.426C434.217 134.807 447.197 138.623 457.55 132.948Z" fill="#FFB7B7"/>
<path d="M417.259 112.531H448.107L448.423 108.09L450.005 112.531H454.755L455.382 103.729L458.517 112.531H467.708V112.095C467.701 105.967 465.27 100.092 460.949 95.7593C456.628 91.4262 450.769 88.9889 444.658 88.9819H440.309C434.198 88.9888 428.339 91.4262 424.018 95.7592C419.696 100.092 417.266 105.967 417.259 112.095V112.531Z" fill="#2F2E41"/>
<path d="M463.047 128.495L476.212 124.211V92.1548H451.346L451.962 92.7711C460.527 101.349 470.053 131.781 463.047 128.495Z" fill="#2F2E41"/>
</svg>


