<svg width="94" height="94" viewBox="0 0 94 94" fill="none" xmlns="http://www.w3.org/2000/svg">
<path d="M50.738 3.11377C49.9448 3.81877 43.7761 16.0608 43.7761 16.0608L39.1862 34.5744L57.0463 32.9367C57.0463 32.9367 71.9027 5.30955 72.2038 4.67065C72.7398 3.51034 73.0263 3.03299 70.9773 3.03299C68.9284 3.02565 51.4797 2.45284 50.738 3.11377Z" fill="#176CC7"/>
<path d="M59.9838 31.7911C59.0952 31.3137 32.922 30.9025 32.3052 31.7911C31.747 32.5989 31.8278 36.2928 32.0995 36.7701C32.3713 37.2475 41.1691 41.3379 41.1691 41.3379L41.1617 42.8287C41.1617 42.8287 41.6464 43.9964 46.552 43.9964C51.4577 43.9964 51.9644 43.005 51.9644 43.005L52.0084 41.4995C52.0084 41.4995 59.712 37.6514 60.1159 37.3136C60.5272 36.9684 60.8724 32.2684 59.9838 31.7911ZM51.9203 37.9084C51.9203 37.9084 51.8983 36.8803 51.3916 36.6232C50.8849 36.3662 42.7259 36.4103 42.0356 36.447C41.3453 36.4837 41.3453 37.7175 41.3453 37.7175L35.7641 35.0003V34.4568L56.5469 34.6037L56.5836 35.2206L51.9203 37.9084Z" fill="#FCC417"/>
<path d="M43.5191 37.578C42.8288 37.578 42.4322 38.2977 42.4322 39.5388C42.4322 40.6991 42.8288 41.6758 43.7027 41.6024C44.4223 41.5436 44.672 40.4421 44.6059 39.4653C44.5398 38.305 44.393 37.578 43.5191 37.578Z" fill="#FDFFFF"/>
<path d="M21.2822 66.6225C21.2822 84.2181 37.1888 92.0539 47.7638 91.6794C59.4256 91.2608 73.3934 82.1692 72.5489 65.3814C71.7484 49.4748 58.3681 41.9328 46.7797 42.0136C33.3113 42.1091 21.2822 51.252 21.2822 66.6225Z" fill="#FCC417"/>
<path d="M47.3892 88.6171C47.2056 88.6171 47.0147 88.6171 46.8311 88.6097C41.3233 88.4261 35.8816 86.1055 31.9012 82.25C27.6419 78.1229 25.3066 72.5416 25.3359 66.5418C25.402 51.891 38.2095 45.098 46.8972 45.098H46.9706C58.7427 45.1494 68.407 54.2997 68.6787 66.7033C68.7962 72.2258 66.5344 78.0201 62.0987 82.3822C57.9569 86.4433 52.4637 88.6171 47.3892 88.6171ZM46.8825 47.5361C39.0908 47.5361 27.5684 53.9105 27.5391 66.5418C27.517 75.9858 34.8314 85.6943 47.0147 86.1055C51.6559 86.2524 56.4367 84.4752 60.2995 80.6785C64.3092 76.7349 66.5637 71.653 66.483 66.7327C66.3067 56.0622 57.5823 47.5729 46.9927 47.5288C46.9633 47.5288 46.9045 47.5361 46.8825 47.5361Z" fill="#FA912C"/>
<path d="M42.4616 44.5105C41.9548 43.8128 36.212 43.945 30.785 49.2472C25.5489 54.3658 24.9834 59.1906 25.9895 59.4697C27.1278 59.7855 28.5158 54.6742 33.3112 50.3781C37.7175 46.4419 43.475 45.8984 42.4616 44.5105Z" fill="#FEFFFA"/>
<path d="M64.6764 63.5088C62.9066 63.7585 64.7425 69.0607 60.6373 74.9944C57.0756 80.1424 53.0366 82.0077 53.5066 83.1387C54.1381 84.6515 60.608 80.8841 63.6042 74.7447C66.3214 69.1855 65.9983 63.3179 64.6764 63.5088Z" fill="#FEFFFA"/>
<path d="M41.0148 56.5616C40.633 57.1271 40.9781 62.0841 41.2058 62.3044C41.6464 62.745 44.9952 61.1661 44.9952 61.1661L44.8703 74.4216C44.8703 74.4216 42.4102 74.3922 42.1531 74.4877C41.6464 74.6786 41.7125 79.7899 42.087 80.0396C42.4616 80.2893 52.5005 80.4214 52.8823 79.9147C53.2642 79.408 53.1688 74.9357 52.9925 74.73C52.6767 74.3482 50.2753 74.5024 50.2753 74.5024C50.2753 74.5024 50.4809 54.9827 50.4148 54.3585C50.3488 53.7343 49.6584 53.345 48.8359 53.536C48.0134 53.7269 41.2572 56.1944 41.0148 56.5616Z" fill="#FA912C"/>
<path d="M18.7339 2.73181C18.2712 3.15775 35.9623 34.6624 35.9623 34.6624C35.9623 34.6624 38.9292 35.0443 45.5533 35.1031C52.1773 35.1618 55.46 34.7212 55.46 34.7212C55.46 34.7212 41.7051 3.0476 40.8826 2.73181C40.4787 2.57025 35.0297 2.5115 29.7055 2.45275C24.3739 2.38666 19.1745 2.32056 18.7339 2.73181Z" fill="#2E9DF4"/>
</svg>
