<svg width="86" height="86" viewBox="0 0 86 86" fill="none" xmlns="http://www.w3.org/2000/svg">
<path d="M42.5969 41.8175C42.5969 41.8175 4.70311 45.197 4.8778 47.777C5.05249 50.357 5.50264 59.7834 7.81389 62.5448C10.1251 65.3063 18.8461 70.7283 25.4305 74.1952C32.0148 77.662 44.0212 83.5342 50.693 83.3595C57.3647 83.1848 69.4651 72.5961 69.9959 69.8414C70.5267 67.0867 69.8212 57.2102 69.8212 57.2102L42.5969 41.8175Z" fill="#C9CABB"/>
<path d="M29.9656 19.7532L18.3153 23.7575C18.3153 23.7575 18.6109 27.164 19.2022 29.4483C19.9144 32.203 21.6008 38.7 27.2983 41.0986C32.9891 43.4972 64.1237 50.4377 65.9916 49.9069C67.8594 49.3761 73.6442 44.6596 75.7741 42.8791C77.9106 41.0986 55.1341 18.2415 55.1341 18.2415L29.9656 19.7532Z" fill="#C9CABB"/>
<path d="M34.7695 18.8662L21.3387 21.6209C21.3387 21.6209 22.9378 34.3395 25.6992 36.3887C28.4606 38.4379 61.6378 46.7961 63.6803 46.5273C65.7295 46.2586 73.2881 40.6551 73.2881 40.6551C73.2881 40.6551 75.3373 33.54 75.2433 33.2712C75.1559 33.0092 34.7695 18.8662 34.7695 18.8662Z" fill="white"/>
<path d="M8.1767 48.6639C8.1767 48.6639 8.70748 58.2718 10.0445 59.9582C11.3815 61.6513 18.6714 67.4294 28.2792 72.0586C37.887 76.6878 47.1387 79.5299 50.8744 79.6172C54.61 79.7046 65.9983 70.7216 66.8851 68.9411C67.772 67.1607 65.9042 57.1094 65.9042 57.1094L8.1767 48.6639Z" fill="white"/>
<path d="M16.6222 26.5996C19.6658 27.9903 21.6948 21.883 31.0339 21.7956C40.373 21.7083 48.8252 26.6869 54.6973 29.623C60.5695 32.5591 72.6633 42.3416 76.3116 43.4099C79.9598 44.4781 83.3394 40.8299 83.252 35.9386C83.1647 31.0474 81.1155 17.8786 67.772 9.33909C54.4286 0.799554 37.2017 1.41096 26.8817 6.38955C16.5281 11.4017 10.9045 23.986 16.6222 26.5996Z" fill="#FF6110"/>
<path d="M25.1483 27.1101C25.2894 28.1515 26.7137 28.2859 28.212 28.0373C29.3139 27.8559 30.7786 27.2915 30.5636 26.0418C30.409 25.1214 28.6756 24.8661 27.3923 25.155C26.109 25.4439 25.0072 26.0754 25.1483 27.1101Z" fill="#D4D3D4"/>
<path d="M50.357 33.9768C50.1487 35.213 51.6739 35.6833 53.3133 35.8647C54.9527 36.0394 56.162 36.0058 56.4106 34.8301C56.6592 33.6543 54.9862 33.0832 53.7433 32.9421C52.5003 32.801 50.5653 32.7002 50.357 33.9768Z" fill="#D4D3D4"/>
<path d="M61.0734 37.9677C60.3075 38.6328 60.6098 39.6742 62.1081 41.0314C63.6064 42.3819 64.6008 42.3819 65.1719 41.7436C65.7429 41.1053 64.8158 39.607 63.9625 38.8209C63.1025 38.0416 61.8864 37.2555 61.0734 37.9677Z" fill="#D4D3D4"/>
<path d="M11.2607 57.2303C10.3469 58.3053 11.2271 59.5818 12.7925 60.8987C14.358 62.2156 15.6614 63.4518 16.6357 62.4977C17.9525 61.2145 15.9571 59.434 14.8552 58.4732C13.7533 57.5124 12.2617 56.0545 11.2607 57.2303Z" fill="#D4D3D4"/>
<path d="M17.6031 57.5125C17.1328 58.3792 17.6636 59.3064 19.2761 60.1126C20.8415 60.8987 21.6948 60.8584 22.2323 60.0051C22.7698 59.1519 21.5201 57.9761 20.3108 57.4386C19.0947 56.9078 18.06 56.6592 17.6031 57.5125Z" fill="#D4D3D4"/>
<path d="M18.9536 64.5067C18.8931 65.5145 19.2559 66.3073 22.3264 66.603C25.3969 66.9053 25.9747 65.9647 26.0015 65.1786C26.0419 64.0566 24.9534 63.4183 22.7026 63.2637C20.4519 63.1159 19.0275 63.2302 18.9536 64.5067Z" fill="#D4D3D4"/>
<path d="M21.0834 25.0072C20.7274 23.1125 20.3108 20.5527 20.902 17.4554C21.8427 12.5171 25.4372 7.91474 31.5916 4.57552C34.3328 3.68192 37.5645 3.15114 40.1311 2.9227C41.0986 2.83536 41.972 2.79505 42.6909 2.78833C41.2195 3.26536 38.0752 3.9977 34.9711 5.44895C28.3867 8.52614 24.5638 13.1352 23.6903 17.7241C23.2738 19.9144 23.3544 21.9569 23.5694 23.5224C22.696 24.0129 21.7956 24.5168 21.0834 25.0072Z" fill="#FE8E6E"/>
<path d="M36.0394 22.2054C36.0192 19.9076 36.4962 16.7095 38.8142 14.0421C42.6372 9.64136 48.7109 7.39058 52.6011 6.34917C54.6503 5.79824 57.022 5.4623 59.3333 5.26746C60.3747 5.62355 62.2559 6.29542 64.5537 7.49136C61.6042 7.45105 57.8081 7.62574 54.6301 8.47902C48.5161 10.1251 43.4501 12.8261 40.9978 15.6479C39.0158 17.9256 38.7134 20.8415 38.7873 22.7967C37.6519 22.5279 36.9598 22.3801 36.0394 22.2054Z" fill="#FE8E6E"/>
<path d="M49.2216 26.8481C49.9203 24.8257 51.2372 22.2726 53.7366 20.2167C60.2336 14.882 67.295 14.2706 69.492 14.0422C70.8559 13.9011 72.1997 13.8339 73.4158 13.8204C74.2489 14.6267 75.2769 15.7218 75.8681 16.4878C74.3766 16.4206 72.4012 16.4139 70.3722 16.6356C68.9411 16.7901 61.1339 17.7778 55.732 22.2122C53.5417 24.0128 52.3659 26.3442 51.7411 28.1247C50.8677 27.6947 50.2697 27.3654 49.2216 26.8481Z" fill="#FE8E6E"/>
<path d="M61.1473 33.6139C62.1552 32.1224 63.9356 29.9186 66.603 28.1919C71.0642 25.2961 75.1425 24.3085 80.148 24.3085C80.3025 24.3085 80.457 24.3085 80.6116 24.3152C81.102 25.3969 81.4312 26.4047 81.6597 27.0699C81.1894 27.0228 80.6855 26.996 80.148 26.996C75.6934 26.996 72.0787 27.9769 68.0811 30.5703C65.8034 32.0485 64.2514 33.923 63.3847 35.1593C62.3097 34.4269 61.6445 33.97 61.1473 33.6139Z" fill="#FE8E6E"/>
<path d="M20.4048 13.4241C21.0633 13.7801 20.8214 15.4733 19.9883 16.7566C19.1552 18.0331 18.2952 19.0476 17.3411 18.5975C16.387 18.1541 17.0455 16.0981 17.6367 15.1508C18.2347 14.1967 19.3097 12.8328 20.4048 13.4241Z" fill="#F6FFFE"/>
<path d="M33.4325 11.0187C34.736 12.5103 32.2433 13.545 32.0955 14.9425C31.9477 16.34 33.1235 15.7554 33.0496 17.2335C32.9622 18.9267 26.8347 20.1159 26.0016 17.0857C25.1617 14.0489 31.6185 8.93589 33.4325 11.0187Z" fill="#F6FFFE"/>
<path d="M47.1589 14.5663C46.1712 13.5518 43.6786 14.4185 42.2206 15.9638C40.7626 17.5091 40.3797 20.1832 43.0201 21.1641C45.6673 22.145 46.2922 20.6871 46.1108 20.0622C45.9966 19.6524 45.6673 18.6916 46.0503 18.013C46.4467 17.3344 48.3481 15.7891 47.1589 14.5663Z" fill="#F6FFFE"/>
<path d="M27.2714 38.9083C27.2714 38.9083 3.38627 41.6765 2.90924 43.8735C2.34486 46.4804 2.78158 48.4086 3.83643 49.6986C5.66393 51.936 13.2494 52.7288 23.4552 57.5327C32.7472 61.9066 36.4694 64.2649 41.9317 67.033C47.3941 69.8011 51.432 70.9232 55.3961 69.9489C59.3602 68.9747 63.9222 67.3286 67.7385 64.2649C70.6208 61.9469 71.6622 58.6749 71.4002 55.3625C71.1785 52.5407 69.6802 49.5307 67.8124 48.0324C65.9378 46.5341 27.3453 38.606 27.2714 38.9083Z" fill="#CC1935"/>
<path d="M21.2111 31.7999C7.52502 34.3396 2.61361 42.355 2.94283 44.1355C3.15111 45.2575 6.0133 44.6999 17.1799 48.6303C33.3385 54.3144 46.2183 61.0869 50.7803 61.8394C57.0557 62.8674 63.4586 59.2728 65.9647 57.4252C70.0161 54.4353 70.4999 51.3246 69.0083 49.3089C67.5033 47.2866 58.7622 38.9688 45.748 34.3396C35.3742 30.6577 28.6488 30.4158 21.2111 31.7999Z" fill="#FF605F"/>
<path d="M11.5294 37.0404C9.97063 36.8657 4.34032 40.3931 6.32907 43.5643C8.32454 46.7423 17.7039 46.2787 17.9055 43.9406C18.1406 41.2464 12.6514 41.2531 11.872 40.0974C11.0927 38.9485 13.3636 37.2487 11.5294 37.0404Z" fill="#F9FFFF"/>
</svg>
