<svg width="116" height="116" viewBox="0 0 116 116" fill="none" xmlns="http://www.w3.org/2000/svg">
<path d="M93.2712 68.8387L89.5737 63.2924L74.4031 44.7596C74.4031 44.7596 60.7459 38.7965 51.4931 39.1137C45.1131 39.3312 32.7609 37.1018 19.2034 48.2668C9.04438 56.6315 6.91469 66.3012 6.91469 66.3012L16.965 71.8837L9.30719 76.9859C9.30719 76.9859 18.1159 93.1353 42.4941 96.289C71.3944 100.032 81.9794 84.9699 88.4228 76.5509C89.0934 75.6718 93.2712 68.8387 93.2712 68.8387Z" fill="url(#paint0_linear_15_436)"/>
<path d="M52.2544 25.0397C51.4931 25.4656 46.3184 29.7431 43.8988 32.7972C41.76 35.4978 39.4944 39.4309 39.4944 39.4309C39.4944 39.4309 50.9766 39.0684 59.3141 41.8778C67.6516 44.6872 77.0584 50.8316 84.3175 59.3956C89.8909 65.9659 91.3591 68.585 91.4225 69.7903C91.4859 71.0047 86.8278 76.8681 81.771 81.9341C78.5356 85.1694 75.3456 88.2325 66.9266 93.0719C62.9663 95.3466 59.8488 96.135 59.8488 96.135C59.8488 96.135 69.0563 97.7391 73.5603 97.7934C78.5809 97.8569 81.5172 97.4944 81.8525 96.3072C82.1969 95.12 76.5781 90.8606 76.5781 90.8606C76.5781 90.8606 82.5775 86.0122 86.8278 81.0187C88.5134 79.0341 92.9088 73.4244 92.9088 73.4244C92.9088 73.4244 97.6031 78.3091 100.286 80.5656C103.095 82.9219 109.729 87.9697 110.771 87.5437C111.967 87.0544 109.412 79.46 107.708 76.4059C106.004 73.3428 101.582 69.1741 101.582 69.1741C101.582 69.1741 107.173 64.8784 109.212 60.03C111.251 55.1816 112.81 48.8469 111.532 48.2487C110.254 47.6506 101.853 56.2872 100.159 57.9909C98.455 59.6947 93.7969 65.3225 93.7969 65.3225C93.7969 65.3225 89.8456 61.1719 88.9122 60.0662C87.9788 58.9606 84.9972 55.2178 84.9972 55.2178C84.9972 55.2178 78.6263 42.2584 67.2166 33.1869C59.3141 26.9065 52.2544 25.0397 52.2544 25.0397Z" fill="#1B65A6"/>
<path d="M44.3428 70.4972C44.3428 72.0287 43.645 77.149 48.1672 80.5112C53.4325 84.4171 61.3531 85.0787 64.3256 84.9156C68.8931 84.6618 70.8778 83.4656 70.8778 83.4656C70.8778 83.4656 66.2016 77.5931 57.9456 73.5965C49.6897 69.6 44.3428 70.4972 44.3428 70.4972Z" fill="#1B65A6"/>
<path d="M4.79406 65.9659C4.01468 67.4703 5.04781 68.159 7.60343 69.3462C10.1591 70.5334 14.065 71.9834 14.065 71.9834C14.065 71.9834 11.6 73.0075 10.3222 73.8503C9.04437 74.7022 6.74249 75.5631 7.34968 77.0856C7.79374 78.2094 8.88124 78.1097 10.9203 77.0041C12.9594 75.8984 17.4725 73.089 17.5541 71.9834C17.6356 70.8778 14.645 69.0472 12.325 67.8147C9.51562 66.3284 5.68218 64.244 4.79406 65.9659Z" fill="#1B65A6"/>
<path d="M32.2625 62.5403C32.2625 64.2984 31.1478 65.7937 28.9456 65.9387C26.39 66.1109 25.375 64.2531 25.375 62.4949C25.375 60.7368 27.0334 59.3503 28.6466 59.1962C30.7581 59.0149 32.2625 60.7821 32.2625 62.5403Z" fill="#262D33"/>
<path d="M41.9594 64.244C41.0984 64.3618 40.7722 65.4312 40.8538 67.135C40.9353 68.8387 41.3613 70.1981 41.1075 71.1315C40.8538 72.065 37.2831 77.004 36.6034 77.9375C35.9238 78.8709 35.0719 80.2303 36.0053 81.0006C36.9388 81.7709 38.135 80.7468 38.8147 80.0671C39.4944 79.3875 44.0891 73.3518 44.2613 71.9834C44.4334 70.624 43.8353 67.3071 43.7538 66.6275C43.6631 65.9478 43.2372 64.0718 41.9594 64.244Z" fill="#E0ECF3"/>
<path d="M46.3819 64.2441C46.3003 65.6941 47.995 65.7757 49.9525 65.7757C51.7378 65.7757 62.0781 66.2469 67.6878 66.5369C73.6872 66.8541 81.8072 68.3041 85.3959 68.9203C87.5256 69.2828 89.5647 69.7722 89.5647 68.3222C89.5647 66.9447 87.3353 66.7272 85.1422 66.2832C83.2934 65.9025 77.3847 64.3075 67.7513 63.7094C60.5284 63.2653 50.8044 62.9663 49.6988 63.0478C48.5931 63.1385 46.4634 62.8666 46.3819 64.2441Z" fill="#E0ECF3"/>
<defs>
<linearGradient id="paint0_linear_15_436" x1="50.0912" y1="39.0648" x2="50.0912" y2="96.8781" gradientUnits="userSpaceOnUse">
<stop offset="0.079" stop-color="#1483BC"/>
<stop offset="0.189" stop-color="#1F8CC2"/>
<stop offset="0.381" stop-color="#3CA4D3"/>
<stop offset="0.585" stop-color="#62C2E8"/>
<stop offset="0.962" stop-color="#99D6EF"/>
</linearGradient>
</defs>
</svg>
