<svg width="95" height="97" viewBox="0 0 95 97" fill="none" xmlns="http://www.w3.org/2000/svg">
<path d="M10.3238 68.1046C10.3238 68.1046 9.61133 72.8636 11.2664 77.0619C12.6469 80.5782 16.2242 85.2084 23.0672 88.7398C29.9102 92.2712 37.7699 93.514 49.3703 93.7565C60.9707 94.0066 72.8902 91.2406 78.6125 86.1102C84.3422 80.9722 86.3461 76.6527 86.1828 71.9618C86.0195 67.271 83.5777 65.4901 83.5777 65.4901L10.3238 68.1046Z" fill="#FCB745"/>
<path d="M13.6414 63.3228L10.2571 66.7784C10.2571 66.7784 9.33674 71.401 14.443 76.4026C18.3098 80.1841 25.1528 86.7543 47.8785 86.9286C69.1496 87.0953 75.8367 82.3211 79.941 78.9489C84.0528 75.5766 85.5965 69.7187 85.1883 68.0742C84.7875 66.4298 83.5258 65.4825 83.5258 65.4825L13.6414 63.3228Z" fill="#E78B20"/>
<path d="M15.0887 68.2561C15.0887 68.2561 14.1312 69.9157 14.443 70.9691C14.6879 71.7951 15.1703 75.1674 24.7519 79.4414C29.8211 81.7073 38.4453 83.5564 49.6449 83.2229C62.9301 82.8289 73.573 80.1007 78.7238 75.1598C84.0008 70.1052 82.9914 67.0967 82.9914 67.0967L15.0887 68.2561Z" fill="#FFD290"/>
<path d="M12.35 56.7374C12.35 56.7374 9.17342 60.0415 8.64647 61.5116C8.1492 62.8984 8.216 64.9142 9.09178 66.5435C10.2719 68.726 11.7414 68.9534 13.5597 70.0673C15.5265 71.2647 18.6363 75.0007 26.2883 76.6452C33.9402 78.2896 44.0117 79.0323 49.4074 79.0323C54.8031 79.0323 61.9726 78.9489 68.6597 76.6452C75.3469 74.3414 82.9988 69.8173 84.7726 65.7857C86.5465 61.7541 84.8543 59.367 84.8543 59.367L80.9875 56.7374H12.35Z" fill="#6D544D"/>
<path d="M10.4946 52.5467C10.4946 52.5467 8.03049 52.4331 7.43674 56.2449C7.00627 59.0185 8.96565 60.769 8.96565 60.769C8.96565 60.769 7.92658 62.2922 9.12893 64.2246C10.2571 66.0358 11.4668 66.445 13.9606 66.8543C15.7567 67.1498 16.6992 66.6042 19.0371 67.9228C21.9688 69.5748 23.2231 72.5303 27.2531 73.4321C31.2832 74.3339 35.7957 73.5154 35.9516 72.8561C36.1074 72.1968 30.311 69.7339 19.8387 63.7245C16.3059 61.7011 13.0699 58.9503 12.1867 57.5559C11.3035 56.1615 10.4946 52.5467 10.4946 52.5467Z" fill="#9B7169"/>
<path d="M61.1711 72.6136C61.1711 73.6821 64.6371 73.1896 66.2476 72.2878C67.8582 71.386 70.4336 69.0822 72.7715 68.0895C75.1094 67.1043 75.9926 68.0061 79.3769 66.3617C82.7613 64.7172 84.6168 60.8524 84.6168 60.8524C84.6168 60.8524 86.2644 58.776 86.398 57.321C86.6059 55.1006 86.3906 54.0245 84.8617 53.5319C83.3328 53.0393 80.0004 58.1546 79.518 58.7305C79.0355 59.3064 71.8957 64.6339 69.0754 66.6875C66.2551 68.7412 61.1711 72.0377 61.1711 72.6136Z" fill="#9B7169"/>
<path d="M13.6414 49.7504C13.6414 49.7504 9.61134 50.243 9.04728 51.9708C8.48322 53.6986 10.257 56.2449 14.9254 59.458C18.7551 62.0876 31.877 68.4154 37.0797 71.7118C43.0395 75.4933 48.0863 80.7753 48.925 80.8435C49.9715 80.9269 57.2375 73.0456 67.2942 66.1192C76.8535 59.5262 83.407 57.8969 85.7449 53.0393C86.9992 50.4325 83.9711 48.9244 83.9711 48.9244L45.1399 33.8743L13.6414 49.7504Z" fill="#FFE869"/>
<path d="M49.4074 76.4027C50.6097 76.2663 56.8961 70.0674 64.3105 65.3007C71.725 60.5341 82.6797 55.4264 84.2902 52.5543C85.9008 49.6822 82.034 47.7801 82.034 47.7801L36.9164 40.0504L10.4945 50.6598C10.4945 50.6598 9.04724 51.1524 10.0121 52.3876C10.9769 53.6228 12.5058 55.6765 15.8902 57.8135C20.0019 60.4128 30.5558 64.7248 37.2355 68.4229C43.93 72.121 47.9601 76.5618 49.4074 76.4027Z" fill="#FFBE01"/>
<path d="M14.1312 51.8874L15.534 55.722C15.534 55.722 25.6277 66.1116 45.7039 66.5208C65.6836 66.93 76.8832 57.2224 76.8832 57.2224L79.4363 50.6749L14.1312 51.8874Z" fill="#F4482B"/>
<path d="M40.4492 58.2228L38.8684 60.8069C38.8684 60.8069 42.2453 62.8757 43.2176 63.2319C44.6129 63.7396 45.9859 63.5578 48.0418 62.906C50.0977 62.2619 58.6328 58.7911 58.6328 58.7911C58.6328 58.7911 65.691 58.8972 70.1219 58.9806C74.048 59.0564 77.9816 57.6165 80.0375 55.1915C82.0934 52.7665 85.2848 47.5679 85.2848 47.5679C85.2848 47.5679 86.9473 47.1663 88.0531 45.8704C89.159 44.5746 89.2406 43.4454 89.2406 43.4454C89.2406 43.4454 88.9215 41.2629 87.7414 40.7021C86.5539 40.1338 33.6656 36.8297 33.6656 36.8297L12.4762 38.4439L8.90625 45.9538L20.6848 56.207L37.2875 57.177L40.4492 58.2228Z" fill="#A6B732"/>
<path d="M10.0121 39.338C8.81719 38.7848 7.56289 38.853 7.00625 40.4672C6.44961 42.0813 6.62031 42.7936 6.62031 42.7936C6.62031 42.7936 4.99492 43.1422 4.79453 45.2262C4.55703 47.727 7.24375 48.6136 7.24375 48.6136C7.24375 48.6136 7.36992 49.5836 8.43125 50.5536C9.64101 51.6601 10.8508 51.5464 10.8508 51.5464C10.8508 51.5464 14.0422 54.7519 16.1797 56.0402C18.3172 57.3285 21.3973 58.2227 24.4848 58.1394C27.5723 58.056 28.5965 56.6086 30.8898 57.4119C33.1832 58.2151 39.2617 61.4813 41.7109 61.5343C45.5852 61.6177 53.9644 55.4794 55.8644 55.5628C57.7644 55.6461 66.3812 57.0178 70.968 57.0178C75.5547 57.0178 77.2172 55.6462 78.2414 54.2745C79.2656 52.9029 81.0098 49.4321 80.4531 49.3487C79.8965 49.2654 76.2598 52.3345 73.6547 52.092C71.0422 51.8495 68.7562 50.3187 65.5129 50.3187C62.2695 50.3187 46.4609 52.4179 45.4293 52.9029C44.3977 53.3879 39.9742 56.8586 39.1059 56.6995C38.2375 56.5404 35.2316 53.9562 34.2074 53.3879C33.1832 52.8195 22.3992 52.4558 20.848 52.7437C19.7348 52.9483 18.1613 53.2287 18.1613 53.2287C18.1613 53.2287 18.3172 50.7279 16.9738 49.2729C15.6305 47.8179 11.1996 45.3172 11.1996 45.3172C11.1996 45.3172 11.7488 40.1413 10.0121 39.338Z" fill="#C2DD1F"/>
<path d="M80.134 43.6955C80.134 43.6955 84.9582 43.6955 86.3015 43.6121C87.6449 43.5288 89.2258 43.453 89.2258 43.453C89.2258 43.453 88.7656 41.2175 88.068 40.0277C86.643 37.5875 83.2141 36.9131 83.2141 36.9131L80.134 43.6955Z" fill="#C2DD1F"/>
<path d="M8.90623 36.3523L8.37927 38.7318C8.37927 38.7318 15.675 51.9254 48.4648 52.4255C67.6578 52.7211 78.6867 46.7722 83.5554 41.9071C86.4722 38.9895 86.5687 36.1553 86.5687 36.1553L8.90623 36.3523Z" fill="#DE8010"/>
<path d="M7.24373 29.7897C6.82811 36.3826 8.40155 38.747 8.40155 38.747C8.40155 38.747 19.2523 48.7804 46.9656 49.2427C75.3691 49.7125 84.6019 40.0959 86.2199 37.292C87.2515 35.5111 88.0754 32.0176 87.4222 26.9251C86.3387 18.5134 76.8535 2.55388 46.832 2.67513C16.8105 2.79638 7.85233 20.2185 7.24373 29.7897Z" fill="url(#paint0_radial_15_270)"/>
<path d="M35.766 10.8822C35.9961 12.1705 30.3035 16.4597 29.4797 12.3448C28.7078 8.4724 35.5508 9.69247 35.766 10.8822Z" fill="#FDEAC8"/>
<path d="M37.7996 18.9529C38.0965 19.7486 43.9301 20.8929 43.3066 17.5358C42.6535 14.0423 37.191 17.3161 37.7996 18.9529Z" fill="#FDEAC8"/>
<path d="M42.9133 9.73791C43.0618 10.8822 49.8602 12.216 49.7192 8.98768C49.5485 5.00158 42.7426 8.41174 42.9133 9.73791Z" fill="#FDEAC8"/>
<path d="M31.6988 21.6053C31.7359 21.8629 30.066 23.2043 28.359 23.7272C26.8598 24.1894 25.3234 23.9924 25.1527 22.0903C24.9894 20.2564 26.266 19.5895 27.7949 19.7487C29.5539 19.9229 31.6246 21.1127 31.6988 21.6053Z" fill="#FDEAC8"/>
<path d="M45.8227 26.963C45.5406 25.758 39.1504 24.0833 39.5809 27.8951C40.0188 31.6917 46.127 28.2437 45.8227 26.963Z" fill="#FDEAC8"/>
<path d="M51.8047 18.286C51.493 17.9146 50.0309 17.9828 48.2496 18.4603C46.9657 18.8088 46.0157 20.2866 46.9063 21.6885C47.9453 23.3254 49.6895 22.6358 50.8028 21.249C51.7082 20.1274 52.1535 18.7028 51.8047 18.286Z" fill="#FDEAC8"/>
<path d="M58.6476 9.42716C58.4472 9.20739 56.9851 9.05583 55.7902 9.64692C54.5879 10.238 53.5488 11.6475 54.6621 12.9661C55.7902 14.2923 57.4676 13.5269 58.2617 12.125C58.8926 10.9958 58.9519 9.76059 58.6476 9.42716Z" fill="#FDEAC8"/>
<path d="M63.2344 20.9611C63.0414 19.7259 57.668 17.5282 57.7051 20.8929C57.7422 24.3409 63.4051 22.0751 63.2344 20.9611Z" fill="#FDEAC8"/>
<path d="M70.6637 14.8683C70.4856 13.921 63.65 13.1556 64.8152 16.6794C66.025 20.3548 70.8789 16.0201 70.6637 14.8683Z" fill="#FDEAC8"/>
<path d="M61.2527 27.2661C61.2973 26.2052 56.0945 23.7726 55.7086 26.9554C55.3227 30.1382 61.1934 28.6453 61.2527 27.2661Z" fill="#FDEAC8"/>
<defs>
<radialGradient id="paint0_radial_15_270" cx="0" cy="0" r="1" gradientUnits="userSpaceOnUse" gradientTransform="translate(47.1026 11.7635) rotate(89.3715) scale(33.3743 56.955)">
<stop offset="0.517" stop-color="#DF8016"/>
<stop offset="0.643" stop-color="#E58C21"/>
<stop offset="1" stop-color="#F5AC3C"/>
</radialGradient>
</defs>
</svg>
