<svg width="92" height="92" viewBox="0 0 92 92" fill="none" xmlns="http://www.w3.org/2000/svg">
<path d="M30.8631 47.8832C28.6709 47.5022 26.5075 47.3297 24.38 47.3297C21.1312 47.3297 17.9759 47.7394 14.9931 48.4438C10.0984 49.6082 5.635 51.9153 2.875 55.3653V89.125H46V63.5375C46 54.7113 39.4019 49.3566 30.8631 47.8832Z" fill="url(#paint0_linear_15_375)"/>
<path d="M24.0494 53.2738C21.2678 53.2738 19.0181 51.0241 19.0181 48.2426V43.6282H29.0806V48.2426C29.0806 51.0241 26.8238 53.2738 24.0494 53.2738Z" fill="#E59600"/>
<path d="M2.875 69V89.125H8.625V69H2.875Z" fill="url(#paint1_linear_15_375)"/>
<path d="M37.0012 24.9694H11.0903C8.29437 24.9694 6.00874 27.4059 6.00874 30.3815C6.00874 33.3572 8.29437 35.7937 11.0903 35.7937H37.0012C39.7972 35.7937 42.0828 33.3572 42.0828 30.3815C42.0828 27.4059 39.7972 24.9694 37.0012 24.9694Z" fill="#E59600"/>
<path d="M24.0494 5.8291C15.7981 5.8291 8.15781 14.6553 8.15781 27.3485C8.15781 39.9769 16.0281 46.2228 24.0494 46.2228C32.0706 46.2228 39.9409 39.9769 39.9409 27.3485C39.9409 14.6553 32.3006 5.8291 24.0494 5.8291Z" fill="#FFCA28"/>
<path d="M28.0384 37.0443C26.5291 37.9428 21.5769 37.9428 20.0675 37.0443C19.1978 36.5268 18.3138 37.3175 18.6731 38.1081C19.0253 38.8843 21.7278 40.6812 24.0638 40.6812C26.3997 40.6812 29.0663 38.8843 29.4184 38.1081C29.785 37.3175 28.9081 36.5268 28.0384 37.0443Z" fill="#795548"/>
<path d="M25.875 33.2062C25.8276 33.1842 25.7763 33.1719 25.7241 33.1703H22.3675C22.3172 33.1775 22.2669 33.1919 22.2166 33.2062C21.9147 33.3284 21.7422 33.6447 21.8931 33.9825C22.0369 34.3203 22.7053 35.2618 24.0494 35.2618C25.3934 35.2618 26.0619 34.3203 26.2056 33.9825C26.3494 33.6447 26.1841 33.3284 25.875 33.2062Z" fill="#E59600"/>
<path d="M16.2581 31.2943C17.5482 31.2943 18.5941 30.2099 18.5941 28.8721C18.5941 27.5344 17.5482 26.45 16.2581 26.45C14.968 26.45 13.9222 27.5344 13.9222 28.8721C13.9222 30.2099 14.968 31.2943 16.2581 31.2943Z" fill="#404040"/>
<path d="M31.8406 31.2943C33.1307 31.2943 34.1766 30.2099 34.1766 28.8721C34.1766 27.5344 33.1307 26.45 31.8406 26.45C30.5505 26.45 29.5047 27.5344 29.5047 28.8721C29.5047 30.2099 30.5505 31.2943 31.8406 31.2943Z" fill="#404040"/>
<path d="M12.6644 24.8041C12.6644 24.8041 13.9438 23.115 16.2366 23.115C18.5294 23.115 19.8375 24.8256 19.8375 24.8256C19.9296 24.9543 19.9784 25.1089 19.9771 25.2671C19.9757 25.4253 19.9241 25.579 19.8298 25.706C19.7355 25.8331 19.6034 25.927 19.4523 25.9741C19.3013 26.0213 19.1392 26.0193 18.9894 25.9684C18.9894 25.9684 18.2922 25.6522 17.6381 25.4941C16.9841 25.3359 16.2653 25.2856 15.5538 25.3647C14.4756 25.4869 13.5916 25.9469 13.5916 25.9469C12.9088 26.2272 12.2475 25.4222 12.6644 24.8041Z" fill="#6D4C41"/>
<path d="M35.4344 24.8041C35.4344 24.8041 34.155 23.115 31.8622 23.115C29.5694 23.115 28.2613 24.8256 28.2613 24.8256C28.1692 24.9543 28.1203 25.1089 28.1217 25.2671C28.1231 25.4253 28.1746 25.579 28.2689 25.706C28.3632 25.8331 28.4954 25.927 28.6464 25.9741C28.7974 26.0213 28.9595 26.0193 29.1094 25.9684C29.1094 25.9684 29.8066 25.6522 30.4606 25.4941C31.1147 25.3359 31.8334 25.2856 32.545 25.3647C33.6231 25.4797 34.5 25.9469 34.5 25.9469C35.19 26.2272 35.8441 25.4222 35.4344 24.8041Z" fill="#6D4C41"/>
<path d="M24.1069 3.0188H24.0997H24.0925C2.71687 3.1338 7.09406 27.5497 7.09406 27.5497C7.09406 27.5497 8.05 30.0654 8.48844 31.1794C8.55312 31.3376 8.78312 31.3232 8.81906 31.1507C9.27906 29.1094 10.9178 21.8716 11.7444 19.6722C12.2331 18.3785 13.5772 17.6238 14.9428 17.8682C17.0344 18.2491 20.3766 18.7163 24.0566 18.7163H24.1428C27.8228 18.7163 31.1578 18.2491 33.2566 17.8682C34.6222 17.6238 35.9663 18.3785 36.455 19.6722C37.2816 21.8644 38.9131 29.0591 39.3731 31.1291C39.4091 31.3016 39.6463 31.316 39.7109 31.1507L41.1125 27.5426C41.1053 27.5497 45.4825 3.1338 24.1069 3.0188Z" fill="#543930"/>
<path d="M41.1053 27.5497C41.1053 27.5497 45.4825 3.1338 24.1069 3.0188H24.0997H24.0925C23.7619 3.0188 23.4313 3.02599 23.115 3.04036C22.4753 3.06911 21.8644 3.11942 21.275 3.18411H21.2606C21.2175 3.1913 21.1816 3.19849 21.1384 3.19849C3.13376 5.46974 7.09407 27.5497 7.09407 27.5497L8.49563 31.1651C8.56032 31.3232 8.79032 31.3088 8.82626 31.1435C9.28626 29.0807 10.925 21.8716 11.7516 19.6794C12.2403 18.3857 13.5844 17.631 14.95 17.8754C17.0416 18.2563 20.3838 18.7235 24.0638 18.7235H24.15C27.83 18.7235 31.165 18.2563 33.2638 17.8754C34.6294 17.631 35.9734 18.3857 36.4622 19.6794C37.2888 21.886 38.9347 29.131 39.3875 31.1651C39.4234 31.3304 39.6534 31.3519 39.7181 31.1866C40.1422 30.0725 41.1053 27.5497 41.1053 27.5497Z" fill="url(#paint2_radial_15_375)"/>
<path d="M67.3828 3.0188C47.9694 3.0188 48.1275 20.966 48.1275 21.2535C48.1275 32.8757 49.0187 49.2991 53.6691 55.7607C55.5162 58.3194 59.0812 58.4632 59.0812 58.4632L67.1169 58.4488L75.1525 58.4632C75.1525 58.4632 78.7175 58.3194 80.5647 55.7607C85.215 49.2991 86.1062 32.8757 86.1062 21.2535C86.0991 20.966 86.7962 3.0188 67.3828 3.0188Z" fill="#543930"/>
<path d="M67.3828 3.0188C47.9694 3.0188 48.1275 20.966 48.1275 21.2535C48.1275 32.8757 49.0187 49.2991 53.6691 55.7607C55.5162 58.3194 59.0812 58.4632 59.0812 58.4632L67.1169 58.4488L75.1525 58.4632C75.1525 58.4632 78.7175 58.3194 80.5647 55.7607C85.215 49.2991 86.1062 32.8757 86.1062 21.2535C86.0991 20.966 86.7962 3.0188 67.3828 3.0188Z" fill="url(#paint3_radial_15_375)"/>
<path d="M77.0069 48.4438C74.0241 47.7394 70.8688 47.3297 67.62 47.3297C65.4925 47.3297 63.3291 47.5022 61.1369 47.8832C52.5981 49.3566 46 54.7113 46 63.5375V89.125H89.125V55.3725C86.365 51.9153 81.9016 49.6082 77.0069 48.4438Z" fill="url(#paint4_linear_15_375)"/>
<path d="M67.1169 53.3025C64.3353 53.3025 62.0856 51.0528 62.0856 48.2712V43.6569H72.1481V48.2712C72.1481 51.0528 69.8984 53.3025 67.1169 53.3025Z" fill="#E59600"/>
<path d="M83.375 69V89.125H89.125V69H83.375Z" fill="url(#paint5_linear_15_375)"/>
<path d="M67.1169 8.51721C58.9519 8.51721 51.3906 14.5906 51.3906 27.4635C51.3906 37.8063 57.7947 43.9228 63.3722 45.8922C64.7019 46.3594 65.9812 46.5966 67.1241 46.5966C68.2525 46.5966 69.5319 46.3594 70.8472 45.8994C76.4247 43.9372 82.8503 37.8135 82.8503 27.4635C82.8431 14.5835 75.2819 8.51721 67.1169 8.51721Z" fill="#FFCA28"/>
<path d="M71.0628 37.0444C69.5678 37.9356 64.6731 37.9356 63.1781 37.0444C62.3228 36.5341 61.4459 37.3175 61.7981 38.0938C62.1503 38.8628 64.8241 40.6381 67.1313 40.6381C69.4384 40.6381 72.0763 38.8628 72.4284 38.0938C72.7878 37.3103 71.9253 36.5341 71.0628 37.0444Z" fill="#795548"/>
<path d="M68.9281 33.2062C68.8797 33.1875 68.8289 33.1754 68.7772 33.1703H65.4566C65.4062 33.1775 65.3559 33.1919 65.3056 33.2062C65.0037 33.3284 64.8384 33.6375 64.9822 33.9681C65.1259 34.2987 65.7872 35.2331 67.1169 35.2331C68.4466 35.2331 69.1078 34.2987 69.2516 33.9681C69.3953 33.6375 69.23 33.3284 68.9281 33.2062Z" fill="#E59600"/>
<path d="M59.4047 31.2368C60.6789 31.2368 61.7119 30.1652 61.7119 28.8434C61.7119 27.5215 60.6789 26.45 59.4047 26.45C58.1305 26.45 57.0975 27.5215 57.0975 28.8434C57.0975 30.1652 58.1305 31.2368 59.4047 31.2368Z" fill="#404040"/>
<path d="M74.8291 31.2368C76.1033 31.2368 77.1363 30.1652 77.1363 28.8434C77.1363 27.5215 76.1033 26.45 74.8291 26.45C73.5548 26.45 72.5219 27.5215 72.5219 28.8434C72.5219 30.1652 73.5548 31.2368 74.8291 31.2368Z" fill="#404040"/>
<path d="M62.8403 24.5453C62.4019 23.9631 61.3812 23.115 59.4047 23.115C57.4281 23.115 56.4075 23.9631 55.9691 24.5453C55.775 24.8041 55.8253 25.0987 55.9619 25.2784C56.0841 25.4437 56.4578 25.6019 56.8675 25.4653C57.2772 25.3287 58.075 24.9119 59.4119 24.9047C60.7487 24.9119 61.5466 25.3287 61.9562 25.4653C62.3659 25.6019 62.7325 25.4509 62.8619 25.2784C62.9841 25.1059 63.0344 24.8041 62.8403 24.5453Z" fill="#6D4C41"/>
<path d="M78.2647 24.5453C77.8262 23.9631 76.8056 23.115 74.829 23.115C72.8525 23.115 71.8319 23.9631 71.3934 24.5453C71.1994 24.8041 71.2497 25.0987 71.3862 25.2784C71.5084 25.4437 71.8822 25.6019 72.2919 25.4653C72.7015 25.3287 73.4994 24.9119 74.8362 24.9047C76.1731 24.9119 76.9709 25.3287 77.3806 25.4653C77.7903 25.6019 78.1569 25.4509 78.2862 25.2784C78.4084 25.1059 78.4587 24.8041 78.2647 24.5453Z" fill="#6D4C41"/>
<path d="M67.3828 3.0188C47.9694 3.0188 48.1275 20.966 48.1275 21.2535C48.1275 24.9263 48.2137 29.0735 48.4869 33.2422L54.0644 44.4044C54.0644 44.4044 53.1013 35.6572 52.9934 29.7276C52.9791 28.9657 52.8497 27.0538 53.2162 25.3863C53.7841 23.9776 54.5316 22.885 55.4947 22.6694C66.0747 20.2904 72.0691 14.6769 72.0691 14.6769C73.6287 18.0766 78.4947 21.3972 80.2484 22.6551C80.7444 23.0144 81.1181 24.1716 81.3984 25.6091C81.5494 27.0969 81.4919 28.7285 81.4775 29.6844L80.0328 44.3757L85.7469 33.2494C85.7469 33.2279 85.7541 33.1991 85.7612 33.1776C86.0272 29.0375 86.1134 24.9119 86.1134 21.2607C86.0991 20.966 86.7962 3.0188 67.3828 3.0188Z" fill="#543930"/>
<path d="M67.3828 3.0188C47.9694 3.0188 48.1275 20.966 48.1275 21.2535C48.1275 24.9263 48.2137 29.0735 48.4869 33.2422L51.6637 33.2351C51.635 31.8551 52.6053 23.3091 55.4875 22.6622C66.0675 20.2832 72.0619 14.6697 72.0619 14.6697C73.6216 18.0694 78.4875 21.3901 80.2412 22.6479C81.6787 23.6829 82.1172 31.431 82.0884 33.2422H85.7325C85.7325 33.2207 85.7397 33.1919 85.7469 33.1704C86.0128 29.0304 86.0991 24.9047 86.0991 21.2535C86.0991 20.966 86.7962 3.0188 67.3828 3.0188Z" fill="url(#paint6_radial_15_375)"/>
<path opacity="0.4" d="M46.0144 63.5376C46.0144 54.7113 39.0641 49.3566 30.5253 47.8832C29.2028 47.6532 28.0312 47.5094 26.5938 47.4232V89.125H65.4062V47.4016C63.9688 47.4807 62.5816 47.6388 61.1656 47.8832C52.6269 49.3566 46.0144 54.7113 46.0144 63.5376Z" fill="url(#paint7_radial_15_375)"/>
<path d="M61.5034 87.6731C61.5034 80.6006 52.5119 78.2288 49.3781 78.2288H42.6363C39.5097 78.2288 30.5038 80.6006 30.5038 87.6731C30.5038 87.6731 30.4966 88.241 30.4822 89.125H61.5178L61.5034 87.6731Z" fill="#B2EBF2"/>
<path d="M46 83.5906C45.106 83.5906 44.2486 83.2355 43.6164 82.6033C42.9842 81.9711 42.6291 81.1137 42.6291 80.2197V77.6322H49.3781V80.2197C49.3753 81.1141 49.0182 81.9709 48.3851 82.6027C47.752 83.2345 46.8944 83.5897 46 83.5906Z" fill="#E59600"/>
<path d="M56.5944 64.1196H35.4056C33.12 64.1196 31.2513 65.9165 31.2513 68.1159C31.2513 70.3153 33.12 72.1121 35.4056 72.1121H56.5872C58.8728 72.1121 60.7416 70.3153 60.7416 68.1159C60.7416 65.9165 58.88 64.1196 56.5944 64.1196Z" fill="#E59600"/>
<path d="M46 47.6316C39.2941 47.6316 33.0912 54.6753 33.0912 64.8097C33.0912 74.8866 39.4881 79.8747 46 79.8747C52.5119 79.8747 58.9087 74.8938 58.9087 64.8097C58.9087 54.6682 52.7059 47.6316 46 47.6316Z" fill="#FFCA28"/>
<path d="M49.105 72.5147C47.9263 73.2119 44.0738 73.2119 42.895 72.5147C42.2194 72.1122 41.5294 72.7304 41.8097 73.3413C42.0828 73.945 44.1888 75.3466 46.0072 75.3466C47.8256 75.3466 49.9028 73.945 50.1759 73.3413C50.4634 72.7232 49.7806 72.1122 49.105 72.5147Z" fill="#795548"/>
<path d="M47.4231 69.5175C47.3846 69.5004 47.3431 69.4907 47.3009 69.4888H44.6919C44.6488 69.496 44.6128 69.5031 44.5697 69.5175C44.3325 69.611 44.2031 69.8553 44.3181 70.1213C44.4331 70.38 44.9506 71.1132 46 71.1132C47.0494 71.1132 47.5669 70.38 47.6819 70.1213C47.7897 69.8553 47.6603 69.611 47.4231 69.5175Z" fill="#E59600"/>
<path d="M39.8619 69.496C40.8662 69.496 41.6803 68.6529 41.6803 67.6129C41.6803 66.5728 40.8662 65.7297 39.8619 65.7297C38.8576 65.7297 38.0434 66.5728 38.0434 67.6129C38.0434 68.6529 38.8576 69.496 39.8619 69.496Z" fill="#404040"/>
<path d="M52.1381 69.496C53.1424 69.496 53.9566 68.6529 53.9566 67.6129C53.9566 66.5728 53.1424 65.7297 52.1381 65.7297C51.1338 65.7297 50.3197 66.5728 50.3197 67.6129C50.3197 68.6529 51.1338 69.496 52.1381 69.496Z" fill="#404040"/>
<path d="M37.0156 64.2635C37.0875 64.17 37.1091 64.1125 37.2384 63.9831C37.5259 63.6813 38.0866 63.3219 38.6328 63.135C39.1575 62.9553 39.4019 62.9553 39.7972 62.9553C40.4081 62.9553 40.7819 63.0847 40.9616 63.135C41.2131 63.2213 41.4503 63.3363 41.6875 63.4656C42.0828 63.7028 42.9381 64.285 42.6794 64.8097C42.3919 65.3919 41.9534 65.1763 41.5581 65.0253C41.3856 64.975 40.6094 64.6659 39.79 64.6659C39.3444 64.6659 39.1575 64.7163 39.0425 64.7306C38.5178 64.8169 38.1225 64.9822 38.0506 65.0038C37.7775 65.1116 37.5834 65.2697 37.2744 65.1475C36.9437 65.0038 36.8072 64.5725 37.0156 64.2635Z" fill="#6D4C41"/>
<path d="M54.9844 64.2635C54.9125 64.17 54.8909 64.1125 54.7616 63.9831C54.4813 63.6813 53.9134 63.3219 53.3672 63.135C52.8425 62.9553 52.5981 62.9553 52.2028 62.9553C51.5919 62.9553 51.2181 63.0847 51.0384 63.135C50.7869 63.2213 50.5497 63.3363 50.3125 63.4656C49.9172 63.7028 49.0619 64.285 49.3206 64.8097C49.6081 65.3919 50.0466 65.1763 50.4419 65.0253C50.6144 64.975 51.3906 64.6659 52.21 64.6659C52.6556 64.6659 52.8425 64.7163 52.9575 64.7306C53.4822 64.8169 53.8775 64.9822 53.9494 65.0038C54.2225 65.1116 54.4166 65.2697 54.7184 65.1475C55.0562 65.0038 55.1928 64.5725 54.9844 64.2635Z" fill="#6D4C41"/>
<path d="M46.0791 46.115C31.7544 46.115 30.7553 57.8162 31.3375 62.9337C31.8478 67.4547 34.2053 68.5687 34.2053 68.5687C34.2053 68.5687 33.7381 64.6228 34.4928 61.7622C35.0894 59.4909 36.5053 57.809 36.5053 57.809C36.5053 57.809 39.0928 60.0515 43.9084 61.5106C46.23 62.215 49.2056 61.8628 49.2056 61.8628L47.5381 58.9159C47.5381 58.9159 50.2694 60.9212 51.9656 61.3022C54.1434 61.7909 55.7391 61.5825 55.7391 61.5825L54.9412 58.4703C54.9412 58.4703 56.3284 59.3759 57.3634 61.8556C58.3984 64.3353 57.7587 68.5687 57.7587 68.5687C57.7587 68.5687 60.2456 67.4619 60.6481 62.9337C61.1441 57.2628 60.3391 46.115 46.0791 46.115Z" fill="#543930"/>
<path d="M46.0791 46.115C31.7544 46.115 30.7553 57.8162 31.3375 62.9337C31.8478 67.4547 34.2053 68.5687 34.2053 68.5687C34.2053 68.5687 33.7381 64.6228 34.4928 61.7622C35.0894 59.4909 36.5053 57.809 36.5053 57.809C36.5053 57.809 39.0928 60.0515 43.9084 61.5106C46.23 62.215 49.2056 61.8628 49.2056 61.8628L47.5381 58.9159C47.5381 58.9159 50.2694 60.9212 51.9656 61.3022C54.1434 61.7909 55.7391 61.5825 55.7391 61.5825L54.9412 58.4703C54.9412 58.4703 56.3284 59.3759 57.3634 61.8556C58.3984 64.3353 57.7587 68.5687 57.7587 68.5687C57.7587 68.5687 60.2456 67.4619 60.6481 62.9337C61.1441 57.2628 60.3391 46.115 46.0791 46.115Z" fill="url(#paint8_radial_15_375)"/>
<defs>
<linearGradient id="paint0_linear_15_375" x1="24.4375" y1="88.6197" x2="24.4375" y2="48.7097" gradientUnits="userSpaceOnUse">
<stop stop-color="#009E89"/>
<stop offset="1" stop-color="#00BFA5"/>
</linearGradient>
<linearGradient id="paint1_linear_15_375" x1="6.20497" y1="89.6022" x2="5.36187" y2="70.063" gradientUnits="userSpaceOnUse">
<stop offset="0.604" stop-color="#FFCA28"/>
<stop offset="1" stop-color="#FFB300"/>
</linearGradient>
<radialGradient id="paint2_radial_15_375" cx="0" cy="0" r="1" gradientUnits="userSpaceOnUse" gradientTransform="translate(24.099 23.2786) scale(17.9213 20.2188)">
<stop offset="0.794" stop-color="#6D4C41" stop-opacity="0"/>
<stop offset="1" stop-color="#6D4C41"/>
</radialGradient>
<radialGradient id="paint3_radial_15_375" cx="0" cy="0" r="1" gradientUnits="userSpaceOnUse" gradientTransform="translate(67.1162 29.3176) scale(22.499 26.7761)">
<stop offset="0.794" stop-color="#6D4C41" stop-opacity="0"/>
<stop offset="1" stop-color="#6D4C41"/>
</radialGradient>
<linearGradient id="paint4_linear_15_375" x1="67.5625" y1="88.6197" x2="67.5625" y2="48.4682" gradientUnits="userSpaceOnUse">
<stop stop-color="#530EEB"/>
<stop offset="1" stop-color="#651FFF"/>
</linearGradient>
<linearGradient id="paint5_linear_15_375" x1="86.5547" y1="86.1364" x2="85.7124" y2="66.5965" gradientUnits="userSpaceOnUse">
<stop offset="0.604" stop-color="#FFCA28"/>
<stop offset="1" stop-color="#FFB300"/>
</linearGradient>
<radialGradient id="paint6_radial_15_375" cx="0" cy="0" r="1" gradientUnits="userSpaceOnUse" gradientTransform="translate(67.275 31.2253) scale(23.5664 28.5978)">
<stop offset="0.794" stop-color="#6D4C41" stop-opacity="0"/>
<stop offset="1" stop-color="#6D4C41"/>
</radialGradient>
<radialGradient id="paint7_radial_15_375" cx="0" cy="0" r="1" gradientUnits="userSpaceOnUse" gradientTransform="translate(46 68.2631) scale(19.481 28.3799)">
<stop offset="0.594" stop-color="#212121"/>
<stop offset="1" stop-color="#616161" stop-opacity="0.05"/>
</radialGradient>
<radialGradient id="paint8_radial_15_375" cx="0" cy="0" r="1" gradientUnits="userSpaceOnUse" gradientTransform="translate(45.9453 61.8247) rotate(90) scale(18.4773 16.1216)">
<stop offset="0.794" stop-color="#6D4C41" stop-opacity="0"/>
<stop offset="1" stop-color="#6D4C41"/>
</radialGradient>
</defs>
</svg>
